<mxfile host="65bd71144e">
    <diagram id="HIP3nbAZw_EuaXWnEj3U" name="Page-1">
        <mxGraphModel dx="606" dy="512" grid="1" gridSize="10" guides="1" tooltips="1" connect="1" arrows="1" fold="1" page="1" pageScale="1" pageWidth="850" pageHeight="1100" math="0" shadow="0">
            <root>
                <mxCell id="0"/>
                <mxCell id="1" parent="0"/>
                <mxCell id="7" value="http://ics2o.mths.ca" style="swimlane;whiteSpace=wrap;html=1;fontSize=11;" parent="1" vertex="1">
                    <mxGeometry x="100" y="50" width="530" height="491" as="geometry"/>
                </mxCell>
                <mxCell id="8" value="" style="shape=image;verticalLabelPosition=bottom;labelBackgroundColor=default;verticalAlign=top;aspect=fixed;imageAspect=0;image=data:image/png,iVBORw0KGgoAAAANSUhEUgAAAf0AAAH2CAYAAAB6C1VLAAAAAXNSR0IArs4c6QAAIABJREFUeJzsvXlYW4ed7/0F7ToSSEiAWMxiY1veAsR2DLETIEljaJoGJ+nYbtPWnc5M0nvb28y8nTeZ950umZln4r7zdiad294kd5rGbeMmbprEaRaT1IlxEseQ2AZsYwNmX7SAhCS0Ix1z/wDJEkcSAoQN1u/zPH6Mzo4kzvf89pTxfxqfAkEQBEEQNz2pN/oCCIIgCIK4PpDoEwRBEESSQKJPEARBEEkCiT5BEARBJAkk+gRBEASRJJDoEwRBEESSQKJPEARBEEkCiT5BEARBJAkk+gRBEASRJJDoEwRBEESSQKJPEARBEEkCiT5BEARBJAkk+gRBEASRJJDoEwRBEESSQKJPEARBEEkCiT5BEARBJAkk+gRBEASRJJDoEwRBEESSQKJPEARBEEkCiT5BEARBJAkk+gRBEASRJJDoEwRBEESSQKJPEARBEEkCiT5BEARBJAkk+gRBEASRJJDoEwRBEESSQKJPEARBEEkCiT5BEARBJAkk+gRBEASRJJDoEwRBEESSQKJPEARBEEkCiT5BEARBJAn8G30BBEEQiSbjRxkx14//0/h1uxaCWE6Q6BMEsWKZS9xj7UfCTyQjJPoEQawYFiry0Y5Fwk8kGyT6BEEsaxIp9ASR7JDoEwSxrFisyDMMgxyNBkXFRdBqN8BiseDo0aNwOp1h25GVTyQjJPoEQdxwFiP0apUKWq0WhUVF0Gq10Gq1KC4uRlFRIaxWG3784x9zBJ8gkhUSfYIgrjuLEXmGYbC6uAi3bFqPsm2VKC8vh3b9esjlMnjdLlgtJrB+H/R6A55//nkcPnyYcwyy8olkhUSfIIjrwmKEPj8/D1qtFqWlZaioqAha8yKRCADgcjpgHR+DbrAXLqcdbrcHr7/5Lo68/ifOsUjwiWSGRJ8giCVjoULPMAw2aLUoLStDeXk5SktLsWGDFunpirDtvF4vzKM6GHWDcDnsAAC324O3jr2PI6//idz6BDELEn2CIBLKQoW+ZM0aaDdosWNHBcrKyrBhwwbk5+eBx+PeprxeL6xmI8xjBlhMo2BZf3DdW8fex0uvvB5R8MnKJ5IdEn2CIBbNQoQ+kIBXVl6OsrIylJWVYW3JGkgZWdR9WNYP05gJljEdzKO6MLEHgHcajuO1o++S4BNEFEj0CYJYEPMVeplYAE1eAcrKyqBdvxY7KneivKwM6kx1RGt+NjabFWO6AZhG9WD9fs76P3/4EV5+9Q2YzGbOOhJ8gpiGRJ8giLhZqNDvqKhAZWVlMAkvkIAXD07HBEb1wxg16uF12TnreTw+Gv78IV468jr0hlHOehJ8grgGiT5BEHMyX7EvWbNmUUKPmbj96Ixlb7dZom730anTeOWPRzE8PDKv4xNEMkKiTxBERG6E0CMkSU831AeXw86J24fy+bk2vPLqUfQPDEVcT1Y+QYRDok8QRBjzEfscTRZ27rwDOyoqUFFRgfLy8gUJPQJJekZdxIz8SFzq6MJvD/8Blzq6Iq4nwScILiT6BEHMS+gDWfe7a2tRWVmJ7du2xsy4n4v5WPYBBoYN+M3vXyfBJ4h5QqJPEElMvGLPMAzWr12N23dV4Z6778K2bduRrdEs6twBy34+Yg8AY+Zx/P6VV3Hm7NmI60nwCSI6JPoEkWTMx6rPz89DVVU1ampqsGPHjrDWtwsl0EXPOj4Wlxs/FIvFiiN/PIrjJz6KuJ4EnyBiQ6JPEEnCfKz6ysoKVFVVo7q6Grds2bwo932AQH/8QMvc+Yg9ZtrrvvHWMbzxp2MR15PgE8TckOgTxE3MfKz6kjVrUFVdjdraWlRWVMTdNCcWLOuH1+MJE3vvpBd8Hm9ex/GzLN469j6Ovv1exPUk+AQRHyT6xIogknjRjT4687Hqy8vK8EB9PWpqarB586ZFC32ASMNwvJNeiISieVn5fpbFe38+Qe11CSIBkOgTy5pY4hVYRzf9a8Qr9oFY/f2778SuqnuQnVuQsGtwOiZgs5gjuvH5PN683frNn5/DH954m9rrEkQCINEnliXzcUtn/Cgj6W/+8b5ft5ZtwRe/eB92192XsFh9gFDLPlYHvfnQ2d2LV16N3G0v2T9zglgIJPrEDSGWlb6QiW3JKPwLScyrr6/H2rUlCXPhIwEJetGwWKx4/eg7EWvxk+2zJohEQaJPXFdmC1U8Yr0pW450mTBs2fmRCTg8vnkf62YgXrEPdMurratDdXU1CgsLE3odS2HZh/LnEx9FLc0jCGJhkOgT141oYhUq1rO3uX2NCrcXZ0AqFYQtL1BJcWHAinYjd+razUq8Yl+yZg0eqK9HXV3dorvlRcLpmMD4mAGmUX1CLftQPj/XhveON0ZclwwPdgSxVJDoE0tOPGIVzUovUEk5gg8A6zRyqOXTTWJChf9mtPbjFfttW7eidvcXUP/gwwsedhMLm82KifFRGHVDcDmX7mHL7nDg+IcfRRyic7N9tgRxvSHRJ5aU+SbkhSITc8U+bHtGiC2FCpgnr8JguVbKdbMIfzzvXSBeX1+/B7W1tQl34WNG7MdHdTCP6pdU7AMcP/Exmk6f5iy/GT5TgrjRkOgTS0IswdIoGZRnMbhicqLbzK27DuDw+OCeZGOeZ51GjkGzK0z0VzrxiL1apUJ1dTVq6+pQu3v3ovvgR8JiGoXVYoJRN4hJryfhx4/EpY4uvNtwnJOvQYJPEImBRJ9IOLFEa1O2HLs2ZCI7TQyhhA+Dc5Jzg58vBSppxMS+lUY8Yh+or//Kww9h1x13ID1dkfDrMOoGoRvqA+v3XxfLPoDFYsUbb76L3v7B63ZOgkg2SPSJhBJNuBgeD6VFCtyzKTu4rLRAgTG7F5/2cJuuBOjW21FaEFvY8tPEkEmEYaK/Ulz88YY/NmrX4a577kV9fT0qKioSHq8PnWXvctjh9bgX1C53MXzafAbNZ1s5y1fC50gQKwUSfSJhRBMwmViAOwqV2L5ezVl3a5ESNsdk1Cx88+RVeCdZiITRxUcqFWB1hnhFufiXS3Le7PG2ARbSLncxdHb3ouHPJzhtdknwCSKxkOgTCSGW4N+tzYxqrWcwQtRsnrb+owm/0xdb9LGCXPzzSc7bvbsWtbW1CW+mg4DYj5mgG+gMij3L+uFnWYiEIoiEoutm6ftZFn/+oDFiEx6CIBILiT6xaKIJmUbJoHptBtZp5LH3n0P4GcHcwrPcXfzzSc6r31OP6qrqJUnO83q9sJqNGNUPw+mY4CTohfbGv16u/Z6+AXx+7jxn+XL57AjiZoJEn1gS4hX8ABmMEA/tWIWSQSuaB2wwWJzBY8xl5WMZu/jnk5xXX1+Pql23Q6nOSvh1hMbsx8fHcdXngZ9lr2vMPhpnzrRG7K1PEETiIdEnFkUkUcthRLg9Sx634IdSWqCAViPHwLgL6VIBstPEce+bzr/xAhYgHrHfqF2HuvvuR11dHcrKSpckEx8z2fjmMQMmrONhlv1yEHyLxYrPW8jKJ4jrBYk+kXA2ZaiQIeVjVOeETCGM2FEvFiIhb0EPDOnpiU1yWwhziT3DMNig1S5pcl4Ai2kU5jE9TKP661ZnP1+6+wbQ29d/oy+DIJIGEn0ioZSoGGTLgSl2Cn52Cg7rJNjJq5ArFidsc2XwA0C6VACZWHBD4vrxiH1o57z8/LyEJ+dhxo0/YRm/7k11FsrZljZOxj5BEEsHiT6RUKY8U5CEuNn9k1fhhh9CKT+u2Py4cxIZTPhEPZ3FjTG7d856fQEvlZPMt9TMJfZqlQo1Vbdj9xcfwJfvq1uSeH0Am82KMd1A0LJfioeKROJ2e2A2cR/IyLVPEEvH8r4rECsOg8eLfguLImW48LsmfBCp5xZ9k90LH3s1LJYvFvLQPmRDplyEXKUk6r7xZPkngnjj9ZU770B9fT0qKyuWLF6PGet+eHgE44b+sBG386mx5/H489p+sUmAPB4fftYPw+jYgo9BEMT8IdEnFsX4P42HiaCTZdGiH4VAmoG8kFi1b5KFy+WbM76fLhXAYPWEiX4GI0SWQowxuzem6IuEvCXN4I/HhV9eVobdtbWoq6vD5s2bltTaDrjy9SP9MBl1iz7WfFhs4x6W9cNud8Lldi/4GARBzB8SfSLhmP1+tA7bgPz0oPD7J6/CPeEDj58a082fnSaGzeXjuPnv2ZSNcefkdbn+2cwl9iVr1qC2rg5VVVWorKiAOlO95K51r9cL3WDPDYvbL7ZTn59lYXc64XC4EnZNBEHMDYk+sSTonV5g2AZpvhJK0bR17/WwSI3Dzb9OI4fLxY3Lz471RyJTzk0YXEgyX7xW/QP19aipqVnSLPxQWNYPo24IRt1gmCt/pSESijAxYYfHOXGjL4UgkgoSfWLRzHbxB9A7vWgensCO/LSg8Hvc/ojJerOZb5lfAEkcyYKxmEvsA410ampqlmykbTRsNiv0g72wjo8u+6z8uWBZPxipBGImDQ5P9IFLBEEkFhJ9IiFEE/5hpwuiYaCiUBHM6p+y+4E4rPaFkC4VQM0IYZpnKCCW2IfG6qurq1FeXn5drPoALOuHbrAXplH9irbuZ6NIT0eanIHJHC76y6l9MkHcbJDoEwkjmvD3OF0Qm3mozFZgip2Cl2VhNrig0kjnfQ7vJAuzcxIO73RMWSbig8dLAWZK9gS8VPCFAiAO0Y/Xqq+rq12yXvhzYbNZMdLfBYtpNK44+nyz8KMRGLyzVFP2/CwLpSIdq4uL0Ns/yFlPwk8QSwOJPpFQogl/u9EOcUoqyrPSgJn4vt3qnbNpj3eSxcC4C4NmF2yOSZgnr8LhnoTD4wPD48HJspCJp0MBMokQKmEqfN6pqMeLt4lOVVX1DbHqQzHqBoMjb+MV30SJNJ/HW7IpezweHzweH3weD/fcdSdaz7dzrH2EfFYk/gSROFLG/2k8+h2SIBZArDG7dxQqgxn9IjEPsgxRxGz+LoMdg2YXesc9cLivWe1L0Xgn0Bq3qnpG6MvKbohVHyCQrNfX1Q7MzLa/3n3yl9rSDz3Pbw//AYePvB73PvQQQBALh0SfWBKiCf8aRhoW35fIBFCqp2vyx52TGDK70K23Rxyxm0gCQl9RWYmqqiqUl5ejsLBwSc8ZDy6nY6YUbygouIly2c8HHo9/3R42dHojXvzty/jwo1OLPhY9EBBEbEj0iSUjmvBv1aQH3fx8YSpkCiGumJxLLvYBoS8tK0NlZSWqq6uXrAf+QrDZrOjtaIPLMf0eXG+hR4jYi4SiBYl+YH9EaeAT6kEIfZjR6Y04cvQYTpxoXJJe/PQwQBDTkOgTCWeuuLmKz8dta6Y79o14vRi0utFvcsHJslH3YRgGSqUCRYVFEEvE8Lg9uOr3IpUvmhbLvv45xSI/Pw+PPvoYvvOdx5a0Le5CcDom0NXecsOz8+cS7dnMDgMEXiNGWCL0wQIAePzph64UngCt7d04ffo0mpua0N3Tk/DfLwA9BBDJCok+kVDi6UuPGTe/Qi7AgN0dtbwuPz8PZWVlWL9eiw0bNqCsrAya7Oyg6AfweL1oajqNpqZmnGw8EfMBQK1S4fuPP46//du/vWEJeqEEWun291zmJOwtpVs/Wu/8gGgHRHmu889+SMCM2Ad+DtuWz4dILIE8TQEeXwApIwNShRDyUyGSSCESi8Hj8WGzWdHfP4ATJ07g5MlGdFzugN5gWNJpfPQQQCQLJPpEQogm9gzDQCIWR8zOjsaWzZtw7+7p/vVlZaWQyWRxueC9Xi/6+vrQ3NyMhmPHcKyhIaJQqFUqPPHkk/je974bPK7FNIrz7ZfR0dEBi8UCr9sJt9cHhUKBnJwcZGdno6ioCMXFxQl9WDDqBtF35VLEZjtLGVeP9kAx2wqP19KfLfRSmRwisQQSqWxa3AHI0hTgC0Rxv38s64fD4UB//wD0ej06OjowMDCAjo7LGDeNYsLugtVqndd3ay5I/ImbHRJ9YtFEEnyZWADtplvw5S/eDavVhud//VJMSy20rW1tbS3Wri1ZVKzdZrPixRcP4fnnnovoJs7Pz8PBgwdRW1uLo0ffxNGjb+Dsmc9ht1oiVggwDIPVxUW4pXQ6H6C0tBRbNm8EI0tb8DUaDQb0dbYuy+560R44Zj8UIETg5WkKCEViCIVipCkzlixXwmazwuP2wGA0wmq1wmDQo6+vH0ajEQa9Hr09XRgc0i36YYAeAIibERJ9YsFEs+5XFxXgC3dXoaZqFzJVGXC7PXj2V7/BOw3HI26/ZfMmfOObB7Bnz56EZtCzrB9vvfU2fv7MM/jkFDczfNvWrSgqKkJjY+O8BSI/Pw8VOypQXVOD2traeV+3bqgPg72dy1LwESFWHxBwqUwOAFBkZELKyCAUiiGSSIPW/I3G6ZiAyWxBf38/+vv70draio6Oy+jv64dhZHBBJZ8k/sTNBIk+sSAiCT7DMKi8bSserL8P60tWh6271NGFp/713zni+vBDD+H7jz+O7du3LZll2NbWhp/85Md4++13En5smViAsq23Yd/+/ah/4IG46vuvt+DHmxsQ2C4g+IEYvEQqh0gshpSRQZ6eEYy9rxQCOQLdl87i87YuNDc1oafnCvSG0biPQcJP3CyQ6BPzJpLg5+fnof5Lu1F7Tw0kEjFn/ammz/H//dt/hFlaX3nwfnzt69/CmpK1i3bnz8XJkyfxt49/Hxcuti/J8QOd/Pbt24+vPPxQVMt3OVr4gfc9IPKzrfiVJvKxCCRONp85h8bGRpxsbMTljo64kwRJ/ImVDok+ETfR3Pnbtm7Fw/V12H5raUSr0mKx4kf/8m+41NEVXBaIkQv4qZAyaTjwrW/hm9/85pJdO8v68dJLh/HkE0/EdOUzDIPsTBWuTk3B6/XC52PhcU7E7RaOVR1wowU/8NmEinyaIiMYixczaXEnTd4sDAwMoLGxEQ3HjuHUqY/jsv5J+ImVDIk+ERfRkvWqqquw7+F65OZkR933jbeO4RfP/Trm8W8t24LDv30RJRtKF3WdXq8XVosFCqUSfD4vTMBsNiueeOJJvPDCC5z9GIZBfX096uvroV1TAO9VHtxuN7xeL/r7+3H69GlcvtiGru6+OeP/OZos/O6l36Oqqiq4bDkI/mxLXp6esWxi8TeKwAOqw+FAa2sbGj88job3/owzZ8/G3I+En1ipJM8jPbFgIgm+WqXC7nuqsOf+OiiV0RvduN0enPykOa7zmEb1WLVau6iSOI/Hjeee/SU6Oq9gR0UFKioqgkNz0tMVOHDgAD5rbuK4+cvLyvDTgwcjxuSrqqrwyCNfw/DwCC5eOI+PPzmFk42NUYVBbxhFR0dHUPSNBsN1F/xIIi9LU0AskSaVJT8XgfciPV2Bqqoq7Nq1E3v3fw2HDh3Cbw4divqAR1MAiZUK/fUTMYkWv/+LPV/CXVW7IsbvQ/F4PLBYrVHXy8QCVFRW4p677gTr98NqNiI7t2DB1yuTybBu7Wq8cuRV/PG116ZzDer3YO/evSgvL8f27dtw7+5ajuiPm8dgsVqjJuLxeHwUFhaisLAQtXV1GB4ewTPPPINDv3qe4/ovKlwFrVYLzAj+UE/7kgt+aHa9PE0BqSwNTJoSYrFkWTQhWinweHxotVr8wz88ieLiYjzzH/8RtTMgCT+xEuE9UfPET270RRDLk0iCv2XzJnxj/0O4u/oOCARzPzOea7uA4yc+hs8XOSb+lYfq8a2v70VxYQGmpq4iJSUFaUo1+PyFPY/2dl6AiA8UFeTCZptA++VOfPbZZ/j4o4+gNxhQUFCAnJwc/Pn9Bjgc15K3xkxmbNq0Cdu2bZvzHKmpqZBIJHjrrbfQ/PmZsHUysQB/8+ij2Lf/q7Bbx9F9uQW+yUlMTV1d0O8TCx6PD4FQCKlMjpz8IuQVrEHBmvVQZ+VCnq6EWCxe8PuY7IjFYmzbtg0lJSUYGhzE4NBQxO1+euKneKLmiet+fQSxUOiOQEQkkuBv27oVTzz5JMrLy+G0GjFhHQfr90ctB/OzLJo/Pxc1M7qocBV219ZCLrsWV56wji/Y2mdZPyYnvXC5nNioXYf/8d//GsUl6/FeQwO6e3rws5/9DCcbG7F33z5s2rwFesMHYfu3tLTA6/XGZRm3tLTgg+Pvc5bX3vdlHPjLv4LH48bwQHfM92eh8Hh8SGVyKDIyoVCql7QRTrJTW1uLnJwcHHz6afzxtdcibkMWP7GSoDsFwSGS4O/auRNPPPkkamtrAQBsfh78fhZWsxG6ob6Ig2J6+gbQdvFy9PMoFUiTCsKWsX4/7DYL1Nm58xKytrY2HDt2DMaRPogYJbTFOcjRZOMbe+/H+tV5ePWNd3DhYjvOnD2L/v5+iCOEJT5rbkJLSwvysjPA4wvA4/EgZtIiDufp7OyEyWgIW7Zl8yY8/t2/RqZahZ6O87CYR+f1O8xVTy9PV07H5+UZUCiV5La/TpSWluKZZ55BYVERnnvuuSWdAUAQSw2JPhFGNAv/J089FZaNzuPxwePxkZ1bADGTht6ONo7wX7rcieHhkeBrhmHCbpgejxd+H1fkrOMmOByOeU3CO3HiBH74wx8CMy52hToL2rVrcOeuCtxaugU52Vl49/0P8P4HH0VNzurt68epxvew/dZrFQQiqRyaVSVhHfe8Xi9aW1s5sfwHvnw/tpTvwGBvFyas05bffKz8aL3w0xQZUGXlBBPyiOuPOlONJ37wd7BarRGrP8jaJ1YKqTf6AojlQyTB36hdh3/8x/83TPBnk56ugDorJ8yqdbs9aL3QGbadRBxuXbvcbrg93rBlLOuHy2mHc8ISl2Cy7LT7XKvVIj8/DwDg8PgwPDyC4yc+wk///Zd49le/gdlixbe/8VU88Xf/Hdu2bo14LKfTib7+gbBlXpcdE6aRsGtx2W1obWkJ245hGOyo3IkxkxnmUd2CXPrB+nkeH0KRGOrsXJRsuAUby25D7qpiEvwbCI/Hh1KdhQMHDmDL5k03+nIIYsFQIh8BxCjL+/E/PoGH935tzv09bifGTcZgwtrQ8AjefKcBExN2YEYUlYo0WG0TwX34fAEqbrsVmWoV53g+3ySYtAyIxZGrA1xOB8bHx2Ec6YN+qB9SUSokUjksFgtGR8dCjuPDle5edFzpAZ/Pwx2370DF9jJk5RZi3GzGuCXcOyESCsGyVyERiyGXT4vs1ass1Fm5EAiFAIC28xfwwgu/Cv5uALDjttvwyCOPwDTSDb8v8qjguUhNTYVAKESGWoOcgrUoKF4DeboSqan0bL5cyMnRwOudxKeffspJTqWkPmIlQHcTIirfPHAAf/G1b8W17XRPdknwdU/fAKyma93NcjQa5GrCG/iYzGaM6MLj4gHsNgvGdAMci9lms6LvyiVcam1G5/km6Ib6YDGPwm6zoGbnVvzoxz/Bo9/+OhiGCdtveHgEL/7uCJ791W9gsdrwtYe/hG8eOACZODyn4NPmM/jFL5/DiZPhA3rsdkfw57a2trCwBQCs12px1TsB1r8wC18oEiO3YDU2lFVg7cZbkK3RUHLeMoTH42P/vn0oLyu70ZdCEAuC7ipERCv/4Ycewt8+/njcyWIisRi8mfIwP8tiaHgkLOa9o6ICYrEYnzaHl7jFquE36oYglaUhd1UxXE4HjLpBmEf1cDntUfcp3bQOVbsOIjM7D4d++7swcXY6nXin4Tj0BiMe2fcw8rIyIFco4YjQelXKSMJeC/nXno/7+vo42xcVFcFut8/Lrc/jTTfPyS1YTfH6FUS2RoPqqjsiTm4kiOUOiX6SE60W/7HvfCeuiXEBAgJmt1ngm/ThcueV4DqZWIDKykq43W7OfsMjevhZljO3HTPxet1gL1i/D6ZRPVwOe3CW++z/MdOYJju3AFJGhn/80Y+h3bgJ/+t//pzzoHGu9QIm7C48XP9FqNWZnH7rFbvuRPWuyuDrNEUG0pTT75PX68VAf3/Y9gzDQCETweuK/jAy+70KXKsqK5ey8FcgOyp3Qq1ScZJCKaGPWO6Q6BNhMAyDb3zzQMzEvbnQG4zQG4zB1wp1FkpLS2EwGDgZ/H39g7BYbchURR7m43La0XflUvB1QOADgh9AKpOjaM2GoLXM4/Gxd+8+FBYW4ac/PcgZq9vd04NX/ngUfja8aY5MLEDFbduDrYWFIjFy8oqCrnaDwYD+WaKvVCqQrpi70oDH40OVlQulSj3vkkRieeB0TGDS40FRURGKiormnMNAEMsNuuskMZGs/MrKCuzZs2dBx0tNnf469fQNhFnPWq0W60tWQyKRQKlUhIm+cXAYOp0hquhHImDdh1r46zaVg5GlcbatqKjA008fRHa2BkcO/zYs5NA/wO2y5vD44PdOX1+qQIzs3IKglQ8A/f39HNHXZGuQIZdwjoUQD4giQw25Mnte3hNieWE0GKAb6ITT5YZAIMCqvCyciT2XhyCWHST6RBCGYXDgwIGwmvT5wOdPu+iHZiW5abUbkKbMQJFACK1WGxZnN7tc6LzSjdItG+M6R6hbXyploM7KQc6q4oiCz7J+OBwOMKJUPLK3Hh6HBUfffm/O5io+CFG8diNkcgWn211HRwfHutPkaCCTycLi+UKRGGmKjOmueRmZN9VM+mTEYhqFbqAz2IvC6/MgK1N9oy+LIOYN3YWSlEhWfl1tbbDj3kJxuz3o7A6vdddqteDx+JDJZKiqqsbx4+Htb8+2XkLdvXeFteONRiD2r8xQI7dwPdSZ6jAxZVk/TEYdXE4HdIO9uNTZhYkJO0ZHxzDp80EiFs8p+hKRALkFqzkibTQYcPToG5ztq6qqkVuwGm6XA0KhCFJZGiQSBkp11py/D7H8cTomMDzQzWk+JRAIou5DEMsVEn0CCMyT31M/ry54kdAbjDCEtKfN0UzH8zHj6q6vr8ebR4+GjaW93NGB8xcvY2fF9rjOocrKRcHqdWHZ7izrh2nMBN1AJy62X0bzZ5/hwsXL6Orug8c5wemeNxeRrPKXX3kFp083hS0rWbMGFRUVKF5BlPJNAAAgAElEQVS7ESzrJ2v+JoNl/dDPlIXORkiiT6xA6A5FAADWr12NiorKOLaMzuSkF3rjKCyWa2V4SoUCipAkN61Wiwfq68NE3+l04qNPmrBx/dpgAl0s+HweRCFNe2w2K8Z0A/jko0a8/+FJnD3XhlGDft5CH6Dx5Mco+s1vUF1dDc1MDL6pqQlHXnmF4yWoqq7Gls3ToQkS/JsPo24IRl3kCXsEsRKhu1QSEsm1X3P3vcE2tothRKcPE8YMVSZnm0jWftPp08jOUmP/V/ZAMmsYjtvtwcXLnejrH8Cuyh0QisRQZeZAqc6CUTcI3VAfXn/jTfzpnfdwqaNr0b/DJ6dOoaW1FRu0WhQVFQEAWltbOXPVN2rX4cCBAxHzCYiVj9FgwGBvZ9TeC5NRxkUTxHKGRJ+AWqVCdXX1oixVlvWD9fsxYgyvUc5UpcFq7IctRxMMHWi1Wuzdtw8d7eeD1rjD48PRt9/DpM+H+++/H3lZSgDAmHkcrx19GydOfgqT2TydNZ2fB6N+GG63E4O9nXjn2Pv4zeEjnHr72cjEAsgkQqzOECNTLkLzgA0GS+T4vtPpxJmzZ8MeTELJz8/Df/vu/0BFRcWC3i9ieeN0TEA30IlJryfqNi4nt+8EQSx3SPQJaLXahLQV9ft9GB8zhi3Ly83BpNcD54QlLF9gz549aG5qCptR7nQ68errb0FvHMfeB7+InOws/O73r+KdhuPBbYQCAbyTXphHdTCP6tD0+Vn84bU3Ywr+pmw5SnLkkAh5yE8TQyoVwDvJYszujSr6sdioXYe/+8H/jUcemXsmAbHy8Hq90A/1weWI3WzJODYWcz2ReGZ7KakR0vwh0SdQVl4OdQLKjyzjprCBOjKxAIqM6Qx2o24wrPtcYWEhnvyHf4DVZuVk839y6hTGzWMoLirAycaTweUMwyArKxMioQgs68fAsAGHj7yB3v7BiNezKVuOLYUKFGZIIRKGd/wTCXlI53O7AM7Fls2b8MSTT2Lv3n3z3pdYGZhHdTDqhmK2VHa7PWG5K0T8RAovJuJY9AAQHyT6SUakP7iysrKEJKHZJ+xhvfRFqQLIJHzweHy4HHZYzUZk5xYE15eWluLgwZ/i4NNP41hDQ1guwKWOLk58vnBVHkqKp3sIuN0evPXOu7hwsT3q9RQoJFinkUddn5fFQDYg4CT8qVUquD2e4PXkaLJQXFiADZtLsX///kV1KySWNxbTaMw4fnA7qw2jJkvMbW5mEincxPWFRD/JydFkBZPVFoPfz8LqSYHPxwaXCdNkyMrKDt5ALWZTmOhjRvj/1y/+E3947Q38+lfP41zrhajn2LRxPeRpcrCsH03n2vHR8ZNRtwWAQasbm1w+SKWRS6tUjBAbVWn4bCS82c7u2lrU1dWir68fYrEY5eXlKCoqgkajoT75NzFOxwT6ey7HNSlxRG+A3hB5QuRK4mYSb5p7EB8k+klOXt6qhIg+n8+D2z4Ot+da4hPDyCGVCIOvreOjsNmsnF4ASnUWHn30UVRUVODQoUN49+0/cVz2MrEAWzZtAJ/Hw5h5HO+++w7MLlfYNio+H+aQG3a70Y4ChQS3FCs57n3MuPhzMkVAeANBdHZ04KmnnsLDDz9MZXhJQiCOP7sBTzS6unrmbPJ0PbiZRDsAw+MhRZAKUaoAkhRABEAskUIpFEI882fcNDa24JLcZIfuaElOwIJdLH4/C5/XDYSIfppcCplUCh6PH8zuHx/VRW0ANO3uP4iKih14/PuPh7W7LS5Zh43r1wIAPvm0meMRWMNIsS5fhs+HrTA5J4PLB61ulEzIIFJHjt9rNXK0qxh0m6/dwC93dKChoQGPPvroIt4RYiUxqhuIux7f7fago+tKxHULsTRvNuFmZrpmilNSIBEJg6ItmZqCAgCkIqQLJRALBFDOjOOWSaVIc7uRNtPTQ8UwAAClQABGJII4JQUAIExNxcc6HVrMVjjgwyaGQfsyePhaSZDoJzna9WsT4rLm83kYn3DDyV5z7yvS0iAQCoLufZb1wzo+Bq/XG/WcIpEIWu0GiGfV6t9SWgalUoEx8zhOftIctk7NCLEuX4YMHh8KsSBM9AdsHoz5fVAi/HjB8wl5WKsOF32n04mGhmPYt2/vojsUEssfo24QI4O9c8bxA/QNDKKruy/iuptJwGXi6bCYgjf9v1gogiI1FWKRCGIewoRbJpUiPTUVACAXCDiijZmHAOmMyAf+XwgtJhPMLhe2yuX4y/x8/OjKlTAPHxEbEv0kp2h1yZIdO13BbVrjcthhHtUhd1VxzH2FszLrV2mmb6atbRfR23dtyh3D46FMLEe+VIwpdgoZYjGAawLu8PhwZXAiYgZ/gDX5adCMOsPK95pON6GhoYGy9G9yjLpBDPVdiVmPP5umz86uiJG6oRY3hEJIUqaFW8TjTVvdUhFUvqvgKxRBiztvZv5FqHADQP7M8oDFrRZHfoheajqtVjQOTs/2qNFocEdaGrQSCU7Zp8srKa4/NyT6SUQkK0QsTkxiGo/Hh0jChC2TSiKPmzXqBqHIyAzrnR+AZf0QiURI5V1LvpOJBXA4nfCzLDqvdIfFUovUUmSrRJhip5DCS8HadBF0VimGndfi/QN2N2wmD7JyGc75ACCDmW7YEyr6JrMZx956A7W1tWTt36QEBN/ljF2PH8qYeRwtbReX9LoiIRMLIPJPcd3l0um/30hWt3xmNkAkV7kwNRX8GcscM5a3y+9flAV+PWgZG0OP04U8Ph8VUinkQiHKFIqg6BNzs7w/YWJJUatU0Ghyluz4Mtn0zSYQ0w8QsPalxes4+/B4fCgVCmg0mmDbW4fHh6bP21C6mTt+d9wxiZMOK7bky5AnEkHC5yFbLsBwSJjP5JzEeYsD90QRfQC4tUiJ8yPhg3neO34Sp083LXryILH8sJhGMdR3BRMT1mDfh3hobbu44FbPDI/HsbojucvFKSnIlMuR5nYjhWGQkZaGtBmBVs4I+WzxToRYL3fBN3k8eGdwOsF3l1qN9VIpUlJSsE4qvdGXtqJY3p8ysaQIBLyElqCJZ7n8BAIB+Dxe2A018LNRN4SMTE3EvvXqTDX27d+PltbWoFV/5uxZuJx2TIaUBAKA3ukFAFi6vdikUeAWlRRF6RIY7b4wa7/P4IAlOx1KdWS3ZAYjxC15afi055rb1mQ247333kNNTQ2V6t1EWEyj6Om8AK/HDZFQBO+kNziyORZutweffX4u4joVn4/ynOlGVOlCCRRCISQ8XpjVLZBIkJaayhFuhAjuchfeG0mzwYAWoxEMj4fb09Mhm3mv1kilyOPzMUJx/bigb1gSIxKJIInigl8Is48Va/So1+OGfqgPJRtKOet4PD7+4qE9OP3xhzh85PXg8lgWlpNl0WO0QSXjIU8kQq5CEib6eqcX3WYHtkcRfQAoUEk51v6Hx99HR8eB4HhgYmUTqMX3etzwTk4/MAaEfy6L/+LlTpxv74i47gfbtuHLxdN5Kje7cEt9Priu81hhl9+PEzodnCyLnXI5KtPTAQBTU1PIEgigkUgwQnH9uEiNYxviJoXPFybUgs3OzgYTkvwjlSujbsuyfhh1Qxjq64p4o01TZuC73/kb7Nq5M+7zm/1+DFqnh6CUZjHYlB3eje+KyQmXK3ptb2GGFLKQvgKYedA4duwYvF5v3NdBLE9cTge62luCPfVFQlFQ8OfCz7I429IWMYFvV24uduXnQ8rn3/SCDwCmGe/E9eS8xYJmgx4AUKNWIzPkvjXBsrBeZWPsTYRCop/EOJ12GI3GOLaMD6VSCcmMi59hGMgksW+AAeE3GXUc4efx+Ni28248+9xz+Od//mds27o1rmswmN2weH2YYqegVTDBsiMA6DY7ccUUvaZXJOShPIsb9z/29psw3ATd15IZr9eLwd4uuBx2eCe9HKGfS/xHR004e64t4rpd+fnIT6DHbLlzIx5s2sbHMex0YQ0jRXVGeEJyk82GHqcr6r5EOCT6SYzeMIqWlpaEHS87OxuKmeYaErEYaWnR+94H8HrcGOq7ApNRF3G9VqvFk08+iRcPHcK//du/YcvmTcF1MrEAt+WpwrY3+/3ot01b+7kqKW7JC88ZaB+yYTykjn826emisAcFAPi0+QwaGhrm/F2I5QnL+jHU2wHzqC7oxgcQ0b0/m0BHxuYz5yIOdtqmUuG+ggLOciJxDLvdOD6T1FutUCJbeM0b5/D70WhJ3hkIC4FEP4mIFOfq6OhImOuaEaVCu0ELAChYlYssVXyNSiYmrNAN9cGoizwtDzPi/73vfRf37r6WSe/w+CAXpSFHkxW27YB92tr3TbLYmJsGjfKa9d5tdqJneALRWKeRozCdG/dvaDgGm42mqq00WNaPvq72sG57LOsHn8cLJpkGXkcKM7GsH263B+dazkc8fkVOTlJZ+TeCT4aHcdlqhYrPR41SCRmfj5SUFKSkpKDNbkeLzXajL3FFQaKf5LS1tibMde33+/HFL9yJPV+uw1889ACUyrnr21nWD5FQBJfDjqG+K7CYRmNub7WGC683Jxd33f2FsGUm52TQ2leI+CjPCnfzt4w6Y1r7JTlcD8WJE404caJxzt+HWD54vd6g4Aes+rmy9CPNWjjXdgFtFy9zlq9hpPhScewmU8TicPn9ODU2BifLojw9HaXya3+bdp8PJywWTjc+SuKLDYl+ktPf34/+/v44towNy/rhdjmwvmQ1vv2Nr6K8dPO89vVOeuH1uNHfcxlOR3RLfDY2mxVlZWVhCYQAoLN7YJ9J2luTnxZmvRssTpzrj+4S1CjEYd4BBFvzNlBC3wrB5XSEWfjxJuzNtvb9LIsL7ZcjDtepWFWA9Qpq3LSUnLdYcHpgugNf9YyVj5msfePkJBqt5NqfLyT6SY7JbMaLL764aNf1hGUcE9bpJ2yJRByXReUP6dMfiKe6HHZ0tbfAqBuMmNw3G7fbA61Wi8JVeWHL9U4vBqyAZ2oKGYwQWwoVYdZ+l8EO40Tk1qsKsQCrM7gu/g+Ov5/QHAhiaXA5HRjs7YJ5dDpPJJC4FylmPxc9fQM4/Rm3Nl/F5+NOiuUvOaeGh2H2+7GJYVCtDK8GogS+hUGiT+C9hga8+OKhRR3DajHNq395II4a+jrwz26zoPvyefR1tYdZ1tFqqIuKinDXPfdylvfbrPCOT7vx12nkYUl9JuckLgxFjgWKhDxkyrkJff0DQ2hsJBf/csbldKDz4lmYR3Vh8fpoMfu5uHS5E8PDI5zl5TlZqFBGL0klFs+w240TM6HH6owM5IU0/7L4fBET+Mi1Pzck+klGpD8Kk9mM5597bsEZ6i6nA9bxsQRcXThG3RC6Lp6FbqgPLOsHj8fnNADy+yfh9Xpxz913Qa0Kz+QfdrrQZ/IHa/NnJ/XFsvZXqbg1+wBw8mQjjFS+tyxxOibQefEs7DbLggR+NnaHI2ICH8Pj4e68AqQJud8PInF8MjyMdpMJeXw+ajIykBLSH+CSw0EJfAuERJ8AAHT39ODnP38GHR2RO47Fwjo+Fmx4kigCVprFPIre7k5cav0MuiHuONMx0ziGhwax6447UF1dzVnf77LBYZ229nOVEuwoTA+ui2XtB4bwzKa1pRUtra2L/O2IRON0TAQb70QKAy2EsTEz+ga4FSVFSiV25ecn5BxEZEweDz4YmX7vSzMysF4qxdTUVHD9aZuNEvgWCIl+EhLtj+P48Q/w/PPPzyu+b7NZI8bfE0Eg5n/V54HFPIruy23wucNF2ul04kp3D9LTFaitq+Mk9OmtHgzY3cHXa9UMx9rXWdyIRIFKynHxB/rxL8XvSywMi2k0rNNeorjceQV6A7eapEytpjK9JabZYECLfhQMj4fdIQl8ANDjcqFxnAR+oZDoJynRhP/FF1/Es88+F5fws6wf+sFeuBz2sKS80J8DBBL3Qv8P/Ju93M+y8LNs3IlXHR0dYFk/qqurUV5WFrbOybIYtLqDLn6pVMCx9i/pIlcLFGZII9bsn2w8gYsX2+O6NmJpMeoG0d9zOdhpDzFyP+aDn2VhHOWGrGRiASozMxd9fCI2p8fGYPb7USaVBvvsB2iy2dAeoZqCiA8SfSIMp9OJgwcP4pl//1lM4Q+00A0kTIUKdOjPAREPZE/P7og2e7nD4YjZE10QYdBHZ0cHTGMmFBYWYndtLcc6Nzq8sJmvHWutOrwvf++4J2JsXyTkoUDBteguXGxHU1NT1PeGuD4YdYPQDfUFBT/wnUmUe39gmNuiulCWjhIq01tSOq1WNM+0B78jLS2sz77D78enE9yHdHLtxw+JfhIT7Q/F6XTiP37+P6MKf0DwB3s7g1ZVpPG5iND9LHBjjlRCNTQ8gnNtF8Lao85GxnB74xsMBhhmbhL19fUoKApvmGJyTqJ9whlm7W8pVICZqR4wWJwwWCMn9K3JT+PU7IM69N1QWNYP3VAf+q5cCnPpB0bkJsLSd7vdET/fzXw+1eYvIS6/H41GI7otFqxhpNiVlRWWwNdmt6OZXPuLgkQ/yZlL+J9++mBYl7zA4JK+rvZ5legF959l6Yda+S1tF9B48hR8k77g+tlIpRJu3N5gQF/fdJJfcXEx6u67n7Nfn8ERZu0XZkhRWnTt5t2tjxwPjpbQd/bM52htjTyAhVg6Qr9/Lte0izfw/VlIHX4k/CwLu90Ju51rUWaq1Qk5BxEZl9+PT4aHAQCVaekoFIspgS/BkOgTMYX/+V/+J376//87jAYDnI4J9HS0RR2HGw+BmeWh1j+fx4N30guny4WxcSv8IfXVs4lk6TudzmBXQZFIhOrqak4/fr3Ti2GXBxaTB95JFiIhL6yEz+jwRm3NGymhT28YReOHxymh7zridEygr6sdusHeoNCH9s1P1GfB5/FgtdlgHwsfo6uSSrElNzch5yAi02wwoHV8DCo+H1WUwLckkOgTQAzhd3h8eP6X/4kf/+QnOPvph1Gn4cVLrFao4xYrTKYxjI1xZ5YHkMsYpMm5wh9I5gOAysoK7Nx5B2ebC8MOuB0+TLqmtwuU8MnEAnjYKZjska9tdmOfAI0nP4ZpzBT1WonE4XRMYKAnfFJePG11F3w+lxueWXPjFSnAxjTu94BIDC6/Hx9fuQKHx4fy9HRsnfVet9jtlMCXAEj0iSCxhP+FF17AL57/NcbMi3vSjtWe1+Vyw+djYbZEj5UrFelQq7nZ0wMD/XA4HAAQtXzP4vFixOuF23WtYY9WI8fd2kwUpouRLuUmCQYoUEk5y1paW9F4kjr0LTVG3SC62ltgCJmUhyg5H0tJTroC4lkPAkTiOG+x4NRMSKVaqYQyJGnX4ffjhJV7XyDX/vwh0SfCiPVH9MafjuF3v38VOj03q3kxBLKtvf4peJwTmJyMPgFPLBYjW6PhLO++0gW9/lqnvOrqamzQasO2cbIsBoedsLt8cFgng27+0gIFvlSei+w0buw+QH6aGCUq7hCeEycaaQjPEhFI2Ou+fB4uhz0s/2MprXwAmJyc5AzZyZZIoBZH/44QC8fl96NtfBzDThc2MQwqZsr0QkfoUgJfYiDRJzjEEv53Go7jxd++jN6+gYSdL+CWvzrpgcPjg9Uavb2mRCJGtiqds3zMNI6e7ivB1/n5eajd/QXOdgPsJDzsVQCAzXQtEVEkjD0gSCoVYNMq7nlPNjYGkwiJxMGyfpw/cwp9Xe1hcxlC80Cudz5FDjXkWTKGHA681dsLzPTZXyOVIiUlBVNTU7D7fJTAl0BI9ImIxPqD+vCjU3j+xZdxqaNrSc49NBI7b2BVfh5nmdPpxIWQhjk8Hh+76+5D/qxtHR4f+m1u+Cenhd87yW0kFI3Z9f2YaV+80JkFRGScjgmcP3MKLof9hiVKCoVCTvJmnkx2Q64lGWgZG0O/xRLss4+Z8bkA4GZZNEVw7RMLg0SfiEos4T9z9iye/a/f4PNzbRE78M0XPo+H1Jl4v9k0HvOYBQX5nOx8AHjz6NGw2QG3bNmMqipuP36j3Qe3f/r4rP9q3NcolQpQkiPniMHJk41Us58gAvH7RA3NWQxi5loimUwsQNF1rs93zVi2Lr8fJo8HnVYrOq1WNI2N4Z3+frzT34+msbHgP5PHE9xnJTExOYkPRgbhZNlgn/0AKSkpOGm14qw9sS2Wk5nEtK4iblrG/2kcGT/KiLjuUkcX/vcLv8VXv/pV1OzcuqjzhHZRGxu3wj5hh1IZ+SZbkJeL4sICTl/0jvbzOHr0KP7+738AHo8PKSNDXV0t3mtogMl8rSJg2OmC0SiBJI8HHj/6c29oM58Aa9UMutPtaPf4gsuaTjfhk48/xn1f4vYHIOLD6/VCN9gD3WDvjb4UAIBKqYBAcC3kUyhLD0ssSzQTk5OYYFkMOxwwO50YnskTGZqYgNE5AavLC4vHDesU4PF6kSJIhcPjCzaYUqSkICc9HeszM1GZmYn7iopink/q88GvVmNyGUyqu2SzRe2zb/f5KIEvwZDoE3MSS/h7+wfxwq9/DZfdgruqdkEiWViik3fSC/lMKZ7JNIYJpwfRxpVLJGJs2bwBnzafCVvu8PjwhyOvoL6+HtqZJL57774LZeVlOH78g7Bt9fxJaDOVMWP5PH4qbCYPePzU4HaBbn4Dtun8A8wM4fn4k1Mk+gvE5XRAN9gDo27ohlv3AeRpckhCkvYkM65ml98PKX9+t81Qi93s8cDi82Hi6lWMT0zAbDaj7+pVGN1u6G1WWKcAs8s190FnPGHOwP8ARsxmnDGbcXJoejpdLOF3CQTAMhB8ADg+MACz34+dSiXumPVHTwl8iYdEn4iLWMKvN4zi+V+/BOPoGO6/bzcyVZG3mwv+zM10wu7E6KgRhfncLP0AxUWFUKtUYRY8ZvriH3n5MJ78f/4RIpEIacoM1NfvwenTTWHZ2AM2D3xsbNd+QOhZ/1Ug5OEgP02MwnRxmLXf3NSEkydPIjs7G0qFAgqlEiJRfCVlxpk2wtYQi0ahUECTnR2xUuFmgWX9MBl1wf75ywmZVIqiglXo7Z8W0DNmM/7qww+wU56G4oICpKeGe4jks7wAdp8PtqtXMWa3wzo5CdukG3r3JGxuF9zeSXimpoKCnWiGnS68fPEiSrOzl/00wE6rFY2D00nBNQoFx5sSKYGPWBwk+kTcBFxqkcTf6XTi8JHXodcb8fBDX8b6ktXzOjafx0ORTBo81vCIDttvLY26/eYN67GupJgj+gDw5p/eQv2DD6O0tBQ8Hh+1tbV45eWX8cmpU8FtHB4fBvWOmGV6ACAQ8uCe8MEzNd28Z9A8bYUZ7OE37E9OncLXH/kqGEYOhUKB9VottFot6urqsHnzpohDYDo6OnDk5cNoPPkxdCNDmLBfeyhRKBTB41RWVqK0tBQbNmiRnq4Ay/oTNlTmRmIy6jDUdwUup31eUxWvBxKJGNVVO9F2piVoeQ87XTjidAEGQ9i2DI8XJuCzX98IUiSSJekpkOiwQKPRiB6nC2sYKSpm5UyMeDwRE/jItb84Vv6dg7juxLL6P/zoFAyjY3jwwQdxR0VZ1GY8PB4/OCAlgLywEDKxAA6PD339g/CzbNT9JRIx7txVibaLlzn11BcutuPo638Mim1hYSEeqK8PE30AGLS6sT3kdaBuP/h7OifRY3Zg0OqGefIqDJbY3cCmcwym8wzOnD0LAHj58O/w4IMPBh9CAMBms+LFFw/hyCuvBLebTeBh5szZszh8+DDy8/Og1WpRVVWN/fv3o7CwMOa1LGeWozs/EreWbsFff+fb+NM778WsVJkt8IkU/Pz8PGiyNRCLxVAoFUhPV0AsFsNmteJYQwPnu4+Zh477CgrmHYaIh0SGBUweT1if/U2zqiMaLRZK4FsCSPSJBTFXgt/o8/8F6/gDqN5VGTEhb3ZvfR6PD6FQiCmeEMC06Fustpihgm3lt2CDVhtROF858ip2192HiooKAEBNTQ22bN4UVtY3YPNAZ3FDxQjhGPeCvTo1bdnzpnBJN4Hecc+cQj8Xlzq6cOlfD+Ldd9/B/q99A3v27MHLL7+MgwcPRrxhR2N4eATDwyM4fvwDnDzZiO9//3HU1tYu6tpuBE7HBLraWzjleDei7n4uZDIZ9u/fh4pdNXjppcNobGyM6FlaDAwz3VY6L28VNDkapKcroNFooNFoUFRUBI1Gg5ycHKQxEkjl6fD7vPj4k0/x858/E1Xw961bhy8WFi6J6CeSZoMBLUYjVHw+alWqsHU0QnfpWN7fCmJZE0v4TWYzfvHcr/Fp0+e49+5qVNx2K+Rz1DmrlAqkyRk4nU4YB4cxNmaKKfpKpQL3VN+OjvbzwaS6AN09PThy5AjKy8shEolQWlqKB758f5joOzw+jIw6IVGlwOthMeL1YtTmxYDdDVOU4TsL5VzrBXRe+UmwrHA+gj+b48c/QH9fPzoeewzf+953V4yr32IaRX/P5WD8nsfjLzuhD6BUZSErJx/q7FxsLOXj9oodaD5zDo2NjWhuaoLBYIDeYAh+jgwz/b0NeKoCBERdrc5EtkYDRboCmpwcKNJk0OTmIzs7OyjsapUSYok0+L7M/lwHBgZw6Ne/witHXkV3Tw/nmmViAfYWl+DApk1IEwqvw7u0cFx+P07odHCyLCpVKtwS0jI7JSUFnS4X2iiBb0lYGXcLYtkSS/gRFLtenDnXhnvuuhPlpZsjuuxZ1g95mhwMIwcwCrPLhc4rPdioXRfz/GWlm3FLaSknkx8AGo4dw969e4PW/u66+/DS4cPoH7jWw93mZ3HVfxUtoxNLIvahOJ1OToghFIZhIBGLg6ViE3Zn1IeD7p4e/Pznz6CioiL4+y1njLrBYPx+OSNPVyI7twCqrNywREylOgu1tbWora2FxTSKwRE99Ho9jEYjPJ7pzo5isRgejyfs//T09KCoKxTpEIslcSV4hgq+1+vFiRMn8Pzzz+HEicaoFv6BkvX46xUg+Jjps99s0EMDSnUAACAASURBVIPh8VCtVEIecs12nw8nxscxQh34lgQSfWLRzCX8TqcTx098hNbz7bhj5234wt3VWFNcyBF/mVSKLLUS3TNGzFxxfQDIVGVEje3PtvbLy8vx0MN/gZ/97GfBbc6PLMyNzzAMcjQaFBUXIXsm5mqbSTrSDQ+gq7svblfwrWVbUHP3vSgvL4NGkxMUBYPBgLaWs2g9fwG93Vc4ceXh4REMDPQva9EPrb+fncMRSqQcj0TjZ1mM6Mfg8bg43z95uhLqrBxkZGrAyGJP0lOqs6BUZwVzNJaSgHV/6Le/w/DwSMRtVFIp9q9eje9s2bLsXfoBTg0Pw+LxQiuVonpWmR514FtaVsY3hFj2xMrsD2Aym/HGn46h7Xw7KndsQ8VtW1FcWBCs7RcIBWHx/84rfXPG9TET2y+NULcPAK/98Q+oqNiBvXv3QSQSYf/+/TjZ2BjMA3B4fJzQQCQCiXSFhUUoKiqCVqtFcXExiooKgxn1AOD3s7BaLGhpbcVvDh3CH197LeoxGYbBt771LTz6l1/H2o23RHTT19fXw2azoqGhAX//g/8rrCHR6qICaLUb5rz2G4XL6cBgbxfMo9NtlUMH5sx268/O8UgEfpaFxWpD15Ue9PcPoat3EMPD0yV4j/3VN7H91lJIGTmyc1chLSML6enXt+NeLEKt+7fffifqdiVKJR5euxZfX7NmxQj+sNuNJr0eTpZFhUKBvFlDjE7bbOiIp1cBsSBWxreEWDHMZfVjpqFPb/8gPjz5CW4tuwU7tt+KjevXQqlUIDvz2thcvcGAris9c4q+UqnAnbsqcb6tjSPgesMo/vVf/nl63G5tLTZv3oTHvvMdPPnEE3FZ4tu2bkXt7i9gd919KC4qgjpTHVGcA8t4PD6yNZpgkl1Tc1NEC62ocBV+8PdPYN++vRCLJfDPtAWOdGyZTIa+vn5OB8Kau78QbEK03AiN3wcm4omEoqDwL1Tg58oDcLs9GBzRobu7F30Dg7jQ3hUWe8eMZ6WocBVKNpRy3PjLgY6ODhw6dAi/P/w7zmceyj2rcvHtTbegIpM7ano588nwMM6YzWF99gM4/H68Z7FwKiDItZ84SPSJhBOP1Y8ZQX6n4TgaPz6N0s0bcGv5LWEjU51OJ/r7h7CzYnvM42DG2i/belvEmPmlji48/S9PQaFQYPv2bbBYLHB7PBGPgxkLvLKyArt3T8dw164tmTNZzmazQq83BMfsKhQKlJeVoaysjCP6u3buxGPfeQy1tbUYH9XBOj4G1u+HVCaHKlOD7NyCsO1NYya8N2uoD8MwqK2tXXaCFWi4E1p/jxArHzOZ+os5/mzGzOPoHxhCV1cPOrquoG9gkCOWapUKZeVl2L27FjU1NVF7J9xIvF4vjv/5ffzil7/kdJAMRcXnY79Wi71aLTKWsDXwUhDosw8Au9RqrA+ZpgcAnS4XdeBbYpbXt564qYjH6seMuH/afAafNp+Belbpzuct5/HF3XdF7cMfQK1WY++DX4TBYIiY2fxp8xk89dRPUF+/B88/91zkZCiGQU1NNerr96B29+64u+GxrB9Hj76Jnz/zHzCZxsDjC6DJ1kCTo0Fra2vYtl/60n14+umDyMnRYLD7Eizma+LkctoxYZ2+4YUKf0dnZ9ggIQAoLytD1a7b47q+64XX68WobgAjg72Y9E4/VAUa7gTc+oGfFyP8brcHeoMRPX0D6LzSjc6uHgwMjUT8TEvWrEFtXR2qqqpQtet2KNXcQU3Lgba2Nrz88ss4cuSVqLF7ANikVuORkhJ8ubh4xbjzQ2myWNBitoLh8XCnUsnpZHhifJxG6C4xK+9bQ6wo4rX6A8x2ufd1d+FMy3l84a47Y+7Hsn5s1K7DN776EJ79r0MR3aLHj3+Ajo6OiDfVkjVr8Ohjj+Gbj3x13sLA4/FRu3s3PB4Pjh59Ax0dHehoP48zZ8+CYRgUFa4Kqxg4efIkTp8+DaNuCNlZalTctjVYpTDp9UA31AeFKhsi0XTs+/Tp05z3pay8HGnKhbU7XgpsNiv0g70Y1Q+GLQ9Y5qF1+PMR/FSBGFd9HoyZxzE2ZsLFSx24cPEyBkf0UcUx1FOzXK36ADabFa+8cgSHXnwxaqMmzCTr1RcW4islJVh/naf9JQqX34/3e3pgdrmwUy7Hdrk8aOFjpgNfI1n5S87y/EsgbjrmK/4BHB4fLrRfxq7K2+Ia5rNj+60Y0enx0iuvR7T8IgnFrp078f3HH8f9939pweKQrdHgr/7q26h/4AH09fejs7MTJn0/1DlF0Ov1+OEPfwgAePvtdzhlVydPNeNvvvW1YBjD63HD43FDJBLB72c5Vj4AFBYWLhshMxoM0A10JrR/vp9lMTpqQvvlTnRe6UZ37yB6+/qjljAyDIMNWi2qqqtRXV2N8rKyZT23gGX9+OSTU3ju2WejdtYLsCs3F/vWrEFNfv6KtO4DDDkcaJ0p06tRq5E5KzTVaLGgfRH9K4j4WLnfIGJFshDxb/68BbVfqJmzZh8zVuT9dffC4ZieBTAX27ZuxU+eegpVVVVxX080Akl82RpNsIwucHMPHQ40+wY/PDyCzq7uoOizfj88bg/S0wGrxYLOWaLPMAyK5hidej1gWT+MuiEM9nYG3fkLIRD3d7vd6O0bROeVbvT0DqC7tw8moyFqdQXDMFi/djVu31WFioodqK6qXtZCH2BgYABvvPEGXnzhv2K2981npKgvXo29Wu2yH5wTD6F99qsjJPA1Wiycfci1n3hI9IkbQugf81wPACazGU2fnY1L9DHTl3/P/XUwjppw/MRHUbdjGAZf/cqXUVRUBK/XuyRJcTweH9nZ2cjK5E4EVKtUyPk/7L17eBv3ee/5BWaAwZW48QKKFC+iSIG6kZQsW4rtWIqd2K6dVEnsXGo7cbdJe/JkT592n3ZP9+zuaU/+2O0fe55mz55u09N266Z248a5yIkdS65jSY4lUbZkUleSkngH7yABEBhgZjAD7B/AgANgcCHFC0j+Ps+jRyBmMBhCwnznfX/v+31r3fC07cLRBw8vvYamYUhlNaZnZuDzZS5VGA0GOPLNHV4n2PAipsaH78s/X16bn5qZxY1bfZi4dhF3ArlLPErMZjN2NTfhYEcnjh07hsceewzNzc1lV9CoBhtexFtv/wo/+JsfFDRpQqoy//n2/fhcTc26nd9a4o1G8V6q1ua43YEWkylj+0Akgp4yGfW71SGiT9hw1O7ms28Eeq7dxNz8Qsljex0OO7765S9gwe/HJ703VPfZ07oLbbt3wXvvBhamR7DL07Emvdo763fg2MOP5kR1bbub8eLvPJ8zkbCyuhaWlGXx8PAw5nyZn09trXtDI32/bxbe0XsZRYilIEoSQoshjHkn09F8/91B+P2Bgunt7Ii+o6Nz0wi9zLVr1/DKK6/g9R/9qOBNTYvZhOf37cczDQ1bIrqX+dDrRV8gABdN46jNlrP9HZ+PFPCtE0T0CWVJduX/7f47+OjjT/DMU0+UfIxdzY148WvPYTEUUa3ob9nVBKPRAEkSEQr6MdR/bU2E32ypwHe+8x18dLk7w/v/4uUrcDjscP7O86hx74DZZERldS12NOxKr9er+fTv2eNBpWv9I305nT8zOYZQMDcVq9ZDH41ymJ0P4M6dO+m1+cmh4fS42nzUuquxb/8BdHR0oqurE0ePHoPb7d5UQo9UvcOpN98sWqgHAL9VXY2XDh3CQYdjU6/dZxMRRVyZmwMrSXisujpH9AcjEeLAt45snf9ZhC3PBxev4MEjh0qO9gGg48BefOvlr+PvX/mRqvArbX5DQT8mRu4ATW2rLvwdHR34D3/2Z/iLP/+LjPN4+/R7MJpt+PP/9X9Gw642mMxLQ4lGR0dz+vMBoLGpCQajKef5tWZybCijHU9GttClKDodzd8bHsXwyChu9Q9hZHQEAd9sUefD3S0t6OzsxENHj6KrqwsH97WXbYtdMYLBAM6ePYd/ff31ooV6D7hc+HJrK57YuROVhuLFqpsN2WcfAE7Y7bBk3dB0B4OkgG8dIaJP2DRcuXoVPz31Fr75O18pqZJf5sihpEf6//X9v8lIrd66PYDZWR921C6tm/pmJiGJItr2H171qPLkyS8CQI7wn377F/DsacWf/cf/DUhF1Hfv3sP3v/999F79KOMYZrMZXV2d61q5L0kixobuYHJsKCeSFyUpJ5ofuDMI//goplg+7zHNZjMcDjs8Hg86OjrR3t6Ozs5OeDyeTRfNK5Htc19//XWcOX26YCrfRdM42dq6qdvwihERRbw3OgovG8FhqxXHsqL8kCCQAr51hog+oWxRM/f51Zn3sbNux7LS/EgJf+fBfRmFfbf77+AXvzqTcxPhn5/F8J1baG7bV1CA1MafKrfxHIdQKAwhuojQYgB6PYNPPXgIf/THf4zv/9VfpYU/zMXwyg//GTZHsrCvp6cXlz48rzpL4OnUpLf1Qhb8Ce8Y4grBn5tfyPC0HxkdKWgqA8X8Ao8nKfCdnZ3p2QVbAXnd/tSpnxf9LFbahmeKxRDZRC584+Ewzo2NAgBOuN05PvuXQyFSwLfOENEnbCpYlsWPf/4Wqqur0hF8qRzc355Tzf/Gz34JvU6H57/0eVgtS6n12akx0DSFnbtyI88IG8bMZNKEpmFXW4bw+32zCPh9iEbCSd95LpoTHT/Y6cE3X34Z//f3v5+OBL3eCfzFX/xFwTRwfX0dvvnyy+sqkr6ZSQzf68PsrA9zvnkMjYxieGQMA3eHczzts6l0ueDxeNDZ1YXOzk7s2bMHe3bv2rQp+3yMjo7iRz/6EX78r69n1Gyo0WI24en7aMPbTIIPAD1zcxhkI6ijaRzNqtgPiyK6g0FSwLfOENEnlDVq0b7XO4Ef//RNuBx27GpuLPlYXR0HsNfTllNFf+qtMwCQI/wzk+MQRSm91s7zPALzM5gcH0YkHMKOhqWqeza8iNkpL2YmxyClLmL57GZDQT8e7GhFba07I/1bSEAtBh1e/sZLOHHiRMm/70rgeR4cF8XIyCj6+/vQ3X0Z/beuY2RsAv6pqbwFeJUuF+x2O5qam9DYmJxC2NXVBc+ePXmHFG12RkdHcfr0aZw69fOCXvlI/fsdr2vAC62tyxqQo7fZIGzSSHhREPD2WPLm+ERVFfZkif6MIOBcIDe1T1hbtt43kbAt+KT3Bk69dRrf/t0XMoS6EDtqa/CNF76C//a3/5iRfmVZFqfeOgMhFsOXTz6bLhSUJDE9Fra2YRcWZifTc+ErKuywOyrBRSOYnfJifnYKPBdNHzPfCFmkUuPv/ts5DA2PlHTeB/bvw1e++jX84b//H1d9vVuSRHi9E5iamsLAwAD6+vowMNCP3t7evK10lS4XGnbuwI76BuzZ40F7ezuamppQU1OD2lr3lknXqyFJIm7evIV33nkHb546VbQiHwD2mc148cAB/FZjIyr0+mW932YVfAD4zeQkemZmYKYoHFMp4Du3sIBBlozQXW+I6BPKnnyDe94+/R7stgp8/fkvllzY19WxH888+Zkcm16WZfHGz34Jvz+Ir375C+kMgiSJmJ0aQ3jRnxZ1k8kMV3UtolE2Y3yscl68coSsKEnpYTO3B+7gX378C/Re/QhskWr2XU0N+OKXn8fJkydx5MgD9x0tyzUIft8srt/qQ09PD/r7+3GttxcTE+NYDLHpz8RsNsNoMKCq0okd7ho0796D5sad8OzdB7e7Fk1NTZuyhW6lSJKIjz++glOnTuHdM6eLpvEBoI6mcXz3brzU2lrWhXprUScQEUWcnpwEK0lpn30lczyPj32+nNeR1P7aQ0SfsCnIJ/xyhP6F33oyowo/H2NjXngnpvKm0t87+wEW/H68+LXn0HFgb/r5CJv0lacoGnZnNQILc2mv+WzBV86PlyQR/kAQd+4OYmJyChcvf6IqGLXuajAMA5rWp9vWjqZa11ZDWGemp3Gpuxvd3d0YGOjH6MgIJDEGp6sKdocdezweuN1u2O121NbWwmazweFwwG63w11TA7vDsW0EXgnP8+ju7k5H9mptn9nIYv9sUxMObrBzYinkE/z7WVq47vejV27TU/HZ/zgUwodFvBoIawMRfcKmQU345Qh93reA5778Bezd05bXFvbjT67hh6/9uKDfOVJLBxzH4zvf/iaqqioxMjoOQRBQW1ON1t0tCC/60zcBchSvHB3L6Bn4fD5cHvgEA3fu4fqtAQzfu5O3T/3ZZ5/BH/3RH8Nut4NhGDTsrM/o118NOJ4Hz3Nob2/H0aNH0wLvsNthMBrSDoBbce19uchLHt3dl3D27Dn8+r13M6Yk5sNlMuF4bS2eW+a6fblyP0sLF7xeeFV89jUaDUKxGC4FAmBTMxdkSJS/PpBvOGFL8P4HFzA9O4cvPPOk6kQ+NcGX16bHxidz+qlv99/Bf//HfwFS430BoKGpGd944Ss4euRw2pAmO8LvuXYTwyOj+M2Fy5gdH4GPFQqet5mi0O604IHDXTBbKlbxE8mksbERjY2lFz1uR2amp9HT24tz587h0ofnce1mX8HiShkXTeN4YyM+19KCR1yuLeWmtxK80Si6p5JR/nG7AzVZdQyjHIdLi5u3VmGzs73/dxI2HfnS/EgJ9ej4BG7c6sMzT38WLc2NoCkKt/vv5Ah+fX0dXvzql/DIsQfx4aWP8PaZ93PS7tk/3+6/g9nZOUiSmI7wJUlMvsfAHVy4eBnnL1zO6z5Xa2aw027BxEwQE6kKf1aScHXEi/BiYE1Fn6BOMBhAb+81XLp0CWdOn0Z/f39BQx0lFoMOT9Y14MSOHZt+7O1qku2zryzgSyQSOBcOkwK+DYT8LyVsOgqN52VZFm+ffg99/Xdw4vHPonPvLvzoxz/PEPxdTQ14+aWvpUfZfvYzn0ZLcyNOvXUa535zKW90V+lyobmpAUil8HmBhz8QxNnzH+Lffn0eQyNjqq8zUxQ8VRZ4nGYYaQqsKGBiZmn2/CK78rG0hOXD8zx6enrQ3d2N8+fPobe3t6iZjhKLQYejVVU42dSCZ8pgxPF6YIrFIFZWFk35LwoCfj0xBlaScMzlwuGKCmg0GiQSCSBVwHdpejrndSS1v34Q0SdsWgpF/UMjY5h97Yf4ld2BqemlaXC7W1rwrZe/nmPss6u5Ed/51jdxYF87Xv3Xn6mKQGdXJ6qqKjE0PIpadw1u9g3gxz99E3f6+/Ou1+92mdFaaUZdqpBJQ2lgpjPTnSMjI+i/O4yaHQ0r+hwIxeF5HsPDw7h8+TLOnj2Ly93dJRXlKak3m/DYzgYcq6rCozt2LLv9bjMT0emAEtb4bweD6JmahZmicNzhgEOnSws+AFwKBtFLCvg2FCL6hE1NpcuFRx9+EKNjXgzcHcqI0sNcDGGF4O9qalAVfBmj0YDOjv14+8z7OaLf1LgTB9t34+9/+GPcunkDlZVV8PnmMm4olNSaGewzWFBTw8BIZxr0VGQF9r75eVy6dAmPPfbYSj4CQh4kSYRvzodz58+hu/syzp87i6HhkZLW6ZXsq6zE0aoqPNHYuOUm4K02742OYl4Usc9sTk/T02g0AIBQLIaLwSAp4NtgyP9ewqbF+Z+csBh06Oo4gBe+8iXcHriLgTv3MDwyhjv3hjPWZvd62vCNF75S1Lr3zt3BdOGeknA4gl/86r10dKgm9maKgtvAoNlpR40VOWIPAAkpAVulDuYAlXHxu3y5G8FgYEsb26wXft8sLl/5ZNkFeUrMFIVjO2rweF0DuqqqyrrPvlwYCATQPTcHADjudKIl5cAnR/oDkQguhBY39BwJRPQJm5wwF8PE5BQePnoEDx89goeOHMLYmBf/9Qf/mBb9vZ42fOfb38SBfXvztvPJTExOqabqffPzeQu8zBSFJoMBDfVLafxCGCgtKgw0WHZJ9M+ePYezZ8/h5MmTJfzWBCVy6v7atV70376F7o8+Rm9Pb8kFeUrqzSY85K4lxXkroGduDrd8PrhoOmeaHgBc8fngJQV8Gw75H03Y9MzO+SBKEmiKAk1RuNJzLV15f2D/Przw1S9iryd//76SBX9gWe9dadbjSL0dToqG1aSDKMTh52OIIK56A0DrtaitNqCZ5zE1uDR6lmVZnD59Gk8//fS2NMFZDnLavn9gAD09Pejt7cX1a70rSt0j1XLXXl2NTqcTzzY3o9Zk2lbr9auBXMAHAA85nehQceD7t8XcKJ+k9tcfIvqETc/omBfRaBR2mx2SJGJwaBRmikLHA1148Xeex57du0o4SpJIJFrCXkvsslvT4i4K8eQxEMcdbximei0cTNLtjNZrodNTMFXowOgpNLhMuDiYGYmeOXMa3d3dZG1fBZ7n0d+fnAnQ29uL3p4eDA7ezVtTUQwzRaHJ4Uiv1e+2WlFpKM3KmZDLbyYn0wV8J+x2WFMuf3Jq/3wggH5SwFcWENEnbHpmfQuYm5uH1WKBKEk4uL8dB/e348Ejh+Cw29Iuc0rXPLWBONEoB/8yI31WFABkTg8zQYtpjsdIMApnrR4GIw3GRMFkWrI7bXSa4HaYMe1fiky93gm88847eOSRh7e9M57sitfX14fe3l5cvtyN/r7+ouN8CyEvw3jcbjxQVYVH6utXNN6WkElEFHFpbi5dwHfMZsuo2A+LIs4SB76yYXtfWQhbAq93ApcuX8WulBnPk589kR5pKzvnIdVbjyyvfOXoW47jEAhmpiDNZjPaPR48dvw4zp87lzNVbSEsIOqSMor2DJQWtXYDRkNRtDZUoLYyN4Jk9BR2OQ0Zog8AZ3/9Lu6+/DI8Hs+qfDabiWAwgL6+fgwMDODSpUu41tuLkZGRFa3NK9lXWYnOykocq6pCR00NEfpVZjwcRvd4MrV/3OlEXVbGZJTjcG2BCHy5QESfsCV49+wHeOCBTuzZvStDyNWie/lxNmI8nvPcruYm/OBv/xYdHR34z3/+v+eI/iIngpPiGaJvpCnYdDTuzbMYm4+gzW3NOS4ANLhMuD6xmFE4+EnvDZw+fRqtrbu3dLQvSSK4aATj3kn09/enp/1dufJRST73hbAYdPCYK9BRXY3dNhseqa+HU6cjRXlFWOm0vXMzMxhkI6ijaZxw5vpmvOPzpR0oCRsP+RYQtgRe7wQuXLyctt6VyZ56l+2Xn13cx3GZTfQ1bjca6moBAJ69+2A2mzNH8koSxsOx9Np9+nVxBmaKwvB0GAtNDjjNuYVhjU4TLEZ9TrfAmTOn8fWvfQ01bvd9fSblBhteTIv8tZ6r6L1+A0P37mJ0fGLFKXsZl8mELpcdHpsTD9fXY7fVChNNE6FfBisRfB/H4UOvFwDwSGUl9pgyl7rmeB7dgdwlM5La3zjIN4KwZXj//Ic4+uBhtLW2pIVf9sZXPlb+LUNRNGitFmZLZlTORTkIYjID4PG0o9btznFyYwMcNNVmJKSldUxHJQ0jS2GK5THoXYRzT2XO+TJ6Cl3VZryTleK/dKkb586fw1e/+rVV+Vw2iggbxti4Ny3y/QN3cfvWjVUReaTa6x62VqC5oQEdTicxztkALk9Po282WcD3aYcjw2dfo9HgUjCIgRixmS4nyDeEsGnJtuGdmp7Fm2+dwbd+9wVUudTtefMhSSIcDjsO7tuTMWhnenoa/kAANW43PB4POjs7c0R/BjEsRARUWZl0Bb+RplBjYeBjBdz1sWipr1CN9htqLaj1BjHFZrbvnfr5KTz11FObyqyH53lMT0+jp6cnna4fGOhfcStdNi6ahttuh8dmQ6vLheM1NdhpsRCh3yAiooizk5OYF0U87HDgSFabXigWw28WFnIyWSTK31jIt4WwpXjv7AewWs144StfgsOxfME8+uBhXLp8JT08Z2p6Gteu9cLj8YBhGHR0duInP/1pxmt8rIBgRAsHk1kTUCvqcQvAvXkW4/MRVdGvqTCg2W3J6NkHgHPnyt+sRxZ5ucJ+tUUeqWi+yWZHp9MJj8NBCvHKiOt+Py5PJ0foPu1yoUrhL6HRaDAQieCS37+BZ0hQg4g+YVOjNnTn3V9/AJPRiK8//0UYjcvrvd7racNXvvzb+PtX/gW++XmwLIubPR/h2Wd+C2ZLBTo7O3PW9QHAH2PRhApoKE06zV9Tw6CeM8HLRnBrPIjWSnNG256MWkGfb34e//r66zhx4njZRPvBYAAjI6MYHh5OF98N9Pejr79/1UQeAHY7HOhwOtHqcqHD6cRemw20Vksi+jLjgtcLLxvJ8NmXSSQSOLuwQAr4yhDyLSJsOViWxam3zsBiMePzT38OOr1OtUUvHyceexj+QACvvv4zAIDJZMTslBcNu9rQ1dmJrs5OfHjhQsZrZkIxRJ0SjMis4t9hN8LLRnBvnsVdH4uOhlwBb3Nb0TgawK2sNOi5c+dw+vTpDVnbl6P4kZGRtMD39/dhZHjkvnrlszFTFGorKtBkMcJjS0bzu+124nVf5nijUZxNjcg97nSiRq9PD9YBgFmOIwV8ZQoRfcKmRy3aZ1kWr77+M1TEBDz0uSeACqhW66tBUxQ+//TnULcjWbX/8NEjmJkcg91RicqqShx/7NEc0feyESxIFtRlDdnZadHhtkGHMBfDrfEgPG4rGH3ujceBRjtGg1xOtP/KK6/g+GPH17ySX47i+/v70H/7FvoH7mJo8A7Gxifvu09eST6R3+5r86XOqy8XPvR60z77J5xO4sC3idi+3zLCliKf8P/Nj3+Ge4FFfOkLz2BnfV3JxzMaDXj46JH0zwLPYWSwD7s8HTj+mSfwg7/9uxwxnPNJqMt6C6dJD7dZj3tcDNOsgP7pkGq03+g0odFmyIn2L13qxqk338Qf/MEflHzuxZAF3js+hrv3BtHf34/R0ZFVj+IhF98xDGqdNjxQW496hkFHTc2W6pvX22z3LdalzqsvByKimOGzv8dkynHgu+z3Ewe+MmVrfOsIhDzCH+ZiePftdzEzM4cvPPsUujr2SkkG9wAAIABJREFUl5TiVyMU9GOo/xpqnFYcPXYUb731dsb2ES6EPSKTYdSTkBJorTRjmhUQ5mK4NxVSjfYZPaUa7bMsi9d/9CM89thjy3bpkyQR4XAYU1PT6O/vx8zMTDpNP+kdX7XWOSWyp32tUb9lRT4b2ueDsIIe95VQDhmBs14vuufm0j77lqx/12uhEM6SAr6yZWt+CwnbFtWIX5Jw8fIVjE1M4eSzT+L4I8dWVNmPlPDzXBT79+zCW29lbvOxAhYkMSfFb4IWVkqLMIDRIJc32m9zW7FnbBFXpzMv6L1XP8KpU6fwp3/6J3ld+iRJhChKGevw8rjZtYjgZVw0DYfVuq3T9Ssxtbmv99pAwZd99sNcDA9brXhMpfbiUjCIeVLAV7Zsj28lYVuhJvxIufb9tx/8f/ik5zqe+txncKjjwLKr+5FK9dfV70Sly5WT4h8LRFFXkzka18HosNNuwRTLF4z2AaC1oQIDgUhGtB/mYnjz1CmcPHkyHe3L42WHR0YwMDCAkaF7a7YOL2Mx6OA2WtCm06HW5cJumw1NdjvqLZYtHckTlrju96d99o+53RltegAwwXE4p+KzT1L75QP5lhK2JPmEHwAuXr6CO/eG8ejDD+Kzjx/H3j1tJRX4KWneWYuD+zx4/4PMgr7p+Sj8dnOOLW+rjcF4gMEUyxeM9hudJhysq8gZu3vl6lX85V/+JU6cOIGpqankOvzICEZGR+D1Tizr3Eul3mxCo56Bx+1GldWKDqcT9RYLKiiKzJvfhkREEdcWFjDIRtBiNuG4xZKzz6VgELfWIKNEWD2I6BO2LIWE3zc/j5//4h3cuHUHjx//FD574tPLSvkbjQZ0duzPEf15UUwZ9WTtT1PYYTVkRPutlWYAyOjdZ/SUat8+ALz22mt47bXXSj7H5VBvNsFtMKLRbkery4V6hsFuux0ug4F42BMAAAuxGH5z9y4A4LjdgcasaXpyAV/O60iUX1aQbzJhSyNfcPKJ/73BQUxPjOFq7218+lMPoKvjAKqrK0FTFERJKlj019VxAHs9bbjdfyfj+eGFAJocrpz9m2xGjIai8LECRnwR3PWxqKV1kIQ4rPalu4Q2txUH5yM50f5qIdvZ7qdpVFVWptfhXQYDKg3LX+4gbA8+9Hpxwe+Hi6Zx1GbL8dknDnybAyL6hG1Boag/zMVw5epVXLl6FbuaGnDsoQdwuKsDbbt3gTYuiX72TUB1dSW6OvbniP40x8PP507eczA6NFqN8LECWEnCrfEgLDU26NT69nfaMDwdzvDkXy4ukwkOhkGTxYgacwV2VlSgnmHgMps39Tr8arTIEZaHsk2vy2YjDnybmM33jScQVkgh4ZcZGhnD0MgYzrx3Hgf3efDgkUNoa2tDtcsOnT5TxGmKwoH9e2F+60xJ43aRivZHfCzmRRH35lk0wQCrijVvTYUBnfU2TA3Mqp6nxaADIyZgZPSwGU0wJhIwMAxqjEa0ulywabVbtsiOCP76c93vR89U8v/iky5XTpseKeDbPGydKwGBUALF0v0yvvl5vP/BBVy+0A1HrRsNdbVobmrAzvo6NDTUo6FuB3R6HXY3N6JjfzsuXr6S8frJQBQHXaac4zoYHZoqzZhPteXdjHPYjdyCKKQm8LlnWUz7cwujfrupBc82NcGh08HMMDBoNNBrtaTAjrDqREQR742OYl4UcdhqxbGsKB8Azvn9pIBvk0BEn7AtKSXqRypqZ70T8Hon0sJe6XKhYecOOCur4ajIFXYA8HM8JngedVktTciK9qf9LKZEG6pVjlFTYUBXtRnvqIh+r8+Hl1pbiUc9oSTuZ0lkPBzGubFRAMBRux11iroPjUaDUCyGc6SAb9NARJ+wbSk16s/GNz9ftA+elSTMBnnUVeeKfna0X6hvv95kgNthzon2b/l8eOPePfxPnZ1bKnVPWBvuxzXw3MwMBtkI6lI++xqNJsN291oohB6y5LJp0G70CRAIG83C9xbWJCqZDHF5tzXZjDCnigJHgxxGF9SHk+h1WuzXqlfUnxkbxfUyr5bW22wwxWIl7ElYS1bqGujjOHzo9QIAHqmszPHZD8ViOOv3Ewe+TQQRfQIhxWqL/yInYnKah4bS5GxLRvvJpYEwF8ON0QB4QcrZT0tr0VRnwm6XOWebl43gnz/5BIuCsGrnvNoIweC62tQSVpfL09PomZmBmaLwaYcDVp0uY4TujCCQEbqbDCL6BEIWqyX+rCRhJhpFQkqobm+wG2ExJAUxX7RP08kLbGulOZ0ZUHJ5YQG/Gh2973MlrD96lYK4cmJREHB6chKsJOGY3Y4jVisSiQQSiQQ0Gg00Gg26iQPfpoOIPoGQB1n87+cGYDTOIyrmRvAAUMcwaLQlU/dhLoa7Y4s50T6lT35FG61G7HPnFu3NiyLeHhuDNxpd8TkSNgba59voUyjI7WAQl6amYKYoPGAwZPjsJxIJUsC3SSGiTyCUgJr4Www6PLJjB36ruhpP7NyBB1y5Lnzy5L18NNiX1vb758J51/YBYFedCZXm3Ja8Dycn8fbYWMZzZB29/CnnZY+IKOKC14v5SARNBgOecLsztms0GlLAt0khZb8Ewgr57aYW/MeuLphoGhFRxEIshv/l4kV8ODmZsV++Kn4NpUEdw8BTZcHV6SBYScLYfARtbmt6H5NJh7A+uWZfX2FAm9sKn4o97y9v3UKH04mjVVVAmQvKamOKxbbV77seLMRiODs9DQA47nSixWTKqNonBXybFxLpEwglomztqzeb8GxTU7pdzkTTqDca8Uh9fc7rJkOcaoo/ISWgoTSod5vTa/t3pkOYWcys+tfpKYhCHHxEwoGdNtSac28gbrEs3hsdRWQbXoSzBZ9kOe6ft8fGMJLy2T/hTP6/V1btkwK+zQsRfQJhBTzZ0IiDDkfO8x1OZ44oT7E8Zmbye+hXa+j02r6PFXBjPDNlypiS6f+YIMFKU+isVy8AOzU6ig+L+AdsB8TKyo0+hU3NoiDgypQXrCThIacTe0y5BlTnFhZIAd8mhYg+gVACyii/xWzCE42NqqY4Bx0O7HPmru1P0ULeaD8hJWCzLK3VD0+HscAuteFRtBa0XgtRiAOyPa8jt4VvPhLBu4ODZd3Ctx4Qb/774zeTk+iZmoWZonDCbs/x2ffHYuheXNyw8yPcH0T0CYRlcryhMb12no2JpvF4XUPO8zNhHpwUz3vMWlqXzhBMsTzG55cK+hg9BUqrgYbSILoYS9vzqnFudBS/yaopIBCWw9nJScyLIjwmEx5TsXm+HQ6rFvCR1P7mgIg+gVAEZZRfR9N4orGx4P5dVVXYZ84UZR8rYDycf63Zweiww7rkvHdvKpTRvmes0IGiNOA5CbwgYd9Om6phz7wo4tTIIHxcfjfAjYCss28OuufmcHl6CgDw2YqKjDY9AAiLIing2+QQ0ScQlsFTra15o3yZPXY7jjbkRvusWDjtXsial6KXvqrhBR4mkw77dtpUDXu65+bw3vh4Sb/PekGq6zcHF7xeeNkIWswmPFKdOQZKo9EgKIqkgG+TQ0SfQChAdsV+sShfpquyMl2RLzM9H4WfLxztK615g8Gl4j9GT8FoSq6tSvEEeEFCa6U5vb+SMBfDq/fuYUDl4kwg5MMbjaJ7KhnlP2CtQKMhd+bDJeLAt+khok8glMiTBdbys3nI7UanM3PfeVEsmOJHyqxHpmeWRSSytL/eRKcL+iKLMZhMOhxotOfcXCA1he+t4eFt2cJHWBkfer3oCwTgomk84XTmFPDNchzOkO6QTQ8RfQIhDyuN8gGg0mBApzN3ZO98oLBdbh3DoMWcjN6n/Szu+paiKkZPQaenoKE0iKXW+xudJux1Vage69TwUNlP4SOUBz6Ow68nxsBKErpsNnRYLBmDdQDgTiRCCvi2AET0CYQSyNeXX4iH6+tRb85Mv09zfMEUv4bSYI/Zkl6r905nplIZEwWK0kAU4ggFeDB6Cgd3Vaja83rZCF67e7fsivq2M+U6aviTYBA9U7MAgOMOB6rzpPZJAd/mh4g+gaCCWpSv1pdfiIMOBzzOzJYnVpIKpvgTUgI73Ex6rX40FM1w6DOZdNDpkzcE0UjyAuwy6zOse5Wcmxgru6K+7Uy5jhr+YGwM86KIfWYzjtps6Wl6MoORCM4t5Eb0JMrffBDRJxCKsJy1fCX5evYXOHVbXiUeuxl1NA0fK2A6kBmpMyYKdGr6XiQSA6On8trzhrkY3hoYIFP4CHnpnptD93hyYNPTO3agRcWBrycUIgV8WwQi+gRCFmrueyulq6oqN8XPCgWNepCq5K+rSdrtZvfsm0w6WOx6SFICfCT5fE2FIa897wW/H//a37/i34Gwtbng9WKQjaBFq8VxiyVne1gUVQv4SJS/OSGiTyAUoJD7XinstFjwkLs247kwFytaxQ8ArTYGbocZ80LuDYLJpIPWRmMswqVvCFrqK1TteQHgneEhdM/Nrfj3IGxNMtr0qqtV2/TICN2tBRF9AkHBakb5SKX4H6iqyjHRWSihuM5IU+iqNmOXM/dCjFR0L0RFzKd8+p1mPR5qtKm28A2yEfzk7t1t78tPyERu0zNTFD7tcOS06YVFkRTwbTGI6BMIeTi+gop9NbqqquA2ZK63+4OFq/hl6hgGBx0WMPpc5z0AsNkYzIX4dLTvcVvTE/uyOTMxhl+Njq7odyBsPSKiiAtzc2AlCcfsdhyz5S4PRSVJ1YEPqRtk+Q9h80BEn0BIsRoV+2rstFhwdGdmQV8pRj2l0Og0YS7Ep6N9Rk/hQKMdZnNumv9+ivrKsc2MUJyIKGJREBARRfg4LuPPL4aHcWlqCmaKwnGHAw5FV4FGo4FGo8G7Cwvoj0QKvgfIDcCm4v6vaATCFmQlffn5MNE09qtMK0um+HMrpbORpAQikaQDXzaMnoKNpnB7chE7HEk3v0anCR3uCC4O5lZby0V93zlwYFk3NOXYZlaOmGKxvJ+V0h1RjCfrNIR4HFwiAZbn4Y/F4NDp4M+6wZpXVM2HFNuC8TjCkQgsJhPmQiEAAJdIgIvFwAPghKWbO04COH7J1jmq0WA6EMC8KKKOpuHJuklMJBIIiyIuLi6ClQp3mmSjFH5S7Fd+ENEnEPKs5a9GlC/TVVWF3S4z7s0vXcADXAx+PgYHU1hQE1ICkhDPe39QV21Gz81ZzCxyqKkwgNFTONTkwNACh2l/rvCfGh7Cw/X191WguBYUEszs/XwaDSoTifT+2a+NiCJMNJ3+GwrRFeNxCCnR5VK96GxKELMFFynR1RmNiKlkSLJFWEk4FSFHJSktxkGFEAciPKIaDXhJAick3z/BC9AwekR5IfP8lim8y2FCFNG7uIjDFZnOjgORCK6p9OYvB+d/chLhLzOI6BMIWazWWr6SnRYLOuxu3JsfTD/nYwUEfTE46ooLXTQiwmrP7cNHypxnl9OAG+NB1OxLrufLRX1vqoi+l43gH25dx+6jD6NSpVq7FPQ2G4RURbdSWNVQCjBUolykRFcpuIvxeFpkQ1lCnE9cZaIKgVRGvtFEHJrgIrjUuNhENIpAqsAyGE0JNC+ApzVgxETGMZTIAmymqLxiXGhbURQZAbkA1ExRMGg04BIJGFL2uNn/cgb5czEaYGQjSJjNsGu14FL7ys14Fq0WQZpGj6JA72wggC9UVWWM0j27sICJVSjgk2+oifiXB0T0CduetVrLV2Kiadj1uVa5I+DQTJmRkBKqr0PKmleSkpP11Ar6GD2FKiuDW+NBLLACnClL3tZKM/bVWHFrJpTzmu65OXz/xg281NqaIbZq6WVkpZiRJ8JVRrZQCC7NsmDN5nS6mUtpIccnI10uGkmJcuqAgrAuEW5eRCCs+NFi0GXcBNhT/zcMjB6IchkiCwAGrTZDkA2hEGjrkmOiRZsspTIqOjoMGg2YlJjziUT6sXw8ANApMhmW1GfOpLbx8Xj6sVGjARzOjO1qUIKAM6llgd7FRZwPBPBcTQ0AYI7n8xbwETY3RPQJBAWlrOWXEtkiJfQRUUxHtmoEuBgWIoJqil9DaZCQEkhICWgojerrZXa6TLg1HoQvxKdFX57CNxrkEOYyhTzMxfBafz9O37sHI5PcX04pp9HrASEZ+SZi8XSkuZ5CnN3qaMgaAqOWp5DF2GBcmlhoYFnAagVCIRhSAqyMfGWMqYhaFl2DYptOp8sRW9gzRVbexiv3W+WsEQAg63PJ+bkE9huN+DASAStJYCUJZ+bn8bjTCYdOh0vBYE4B326HAx6nE7NcAAuROKYEAewyXPpIqr88IKJP2NZkVxsHBAH/PLiUglemjqMqYidHswadDjPsYu52xUumgrmRU6EUvzL6T0gJSGIcyNO65zTrUW03YGw+kuHD3+a24uB8BBcH1UeizotiRjo5A1FMim4sMwvhkiPdrJSyARpoWHYp4k0JrQEAQiFYrJnzASxaLTR6PQyKz1UW9XyiC0WUKyOLrDKqNTo0iCYSSUEG0sLLOBwZ+2a/rhi8RlPS/ss55kbRrNej02TChVS03xMMYigaxR6NBmf8/pybu987dAi/f+gQFqJR+DkOw34/hgIBXBgZQf/CAqaj4Zyby2yI8G88RPQJBAU/HRwEBgfTa7L3tTZbIlO0gBqRgYmhC6b51Yr5IpEYKFoLRk9hX4UZvxyZx8wiBytNpZ8vVNQHAIetVrTrdBlRdKH0ck60q8Aoi6tWi0h9PUzRaFJYVaJdvsBxCqIW1ao8l1MBYbEA4XDG+y33vTeDmJcKo9WiXa/HhdTP86mCPgA5BXy7HQ482tAAk04Hk06H+ooKHKiuBgD8/qFDGPT7Mez3o2d8HB/75tA7Nk4MfcoUzcL3FvJfZQiELUgpvcRy4VTG2mw8DhiTz8hruBmRbdZarozSzfxmNJpTHFVp1uPJxsqios8YKLjcS6rv93GIhmOg9VrYKpPv/F7vNKptDBqtRhhNdLr479pYAG/2Tqoet0Wrxe/W1MBaUQFTVoX6ciPhjSJiNOac+3bhfv6NZmIx/M3cXPr/5MNWK5otFryasuaVcTvMeMbdgM/t3YtHGxrgUCydZLOwuIgJjsMPu7vxj319qjfNJNrfOEikT9gWLMc0ZJ/ZjONGI2pTkW1G2jidLk4dr8B6rVoKuUqnw6tZUZSPFTAzw6O5YXlfx7iYjJRFIQ4hVd3f2lCBu2OLqGMYiPqlGwiP24q5Fpdqmn8wHsdvwmF8nqKALPHYDIIPYNsKPu7z38hOUdhvNGJCLuiLRHAtlmsRPe1n8Q/+PpwaHcX/+/TT+MKePXmP6ayogMFoxHGKwjuJBAbz7knYCIjoE7Ysy3UH21dZCY/Nhq5IBDUpwV+NCFJ5Ua43GuGi6ZzU5xQtoEkypYv38qGs4NcbKPCpooFwKAZKr0V9hQF3sQg/H4PRslQnwOgpHHRYMORQT/NfiUax32iEZ4UtfCWTSrETygNGq8Vuhsko6EOe5SyXyYRv79+PRxtyx0XLxFL/r3vefx+z164hfz6AsFEQ0SdsKRr+j5qixURKXCYT2u12PNPejsebm1FnMOCHV66A93rBaLWrHkG2UBQ8RmO6eEomMB+F324uaNTDc1LGUoHeRAOBZMV9QkogJEqwG3Sod5sRieaup1bvMOMhMabauz8vijgXjaJZr1/b6H67C34Z3vS0GwwZBX3ZVLpc+FZLC144dAi7nYVvpBMsixs9PRgcGUGhun5S0LdxENEnbHqWG9GbKQpNDgcebWzEiaamnDXKZzs78UuWRdUajRNt1unSxVMyE6KICOIo1twlRMR0pM/oKTCKaF8TliDENdhVYcSsoH6z4nFbcS9P7/7VUAjtOh0eU5mpvlK281q7KmUk+PKyk1zQd82gy7lhfnxXM/7zY8dxuLY273EAQAgGMTQ0hLs9PfBNTwMAzAByR/gQNhoi+oRNyUoGe7hMJhyrrcXDTU14vLkZHqcTOpV++91OJ1ra2nDjk0/QuAaV+/VGI+poOqegbywQRV2NuutePpQpflGIQ9BK0BsomBj1rzajp3CsrRIzYR4+NnfM7tnFRdQbjWihqJwCMfnnQoVjyop8Ph4HxbLgs/aJJgrXDsvHCKfew6L4ORaLQafTIVZgABCn4otgWIXsBRePl3QctfcvFV7x2TAaTd6fs7fJTn3Z7oFqzymJShKMFIW5WAyMmEibEu2rrMSLHR14rr0d9Vn2vEpioojBGzcyxD7j/Uv8vQnrBxF9wqZiuWJvMejQaLHh0cZGfL6tDV1ud8HKYwCIxGKw6PU4x/OoYVm0WiywxONpEZKFR36cTbGLPp9IJA1kskR/ISwg6pIyqvhpvRaisHQ8gcu8CdGbaNARMb0Pz0nQ0tqCdQE7HEYcqbfjnYHZnG0Toog3pqbQabUinOf3UMaqcsmXQfFY/v0NLAsu1eEQNZtggAYcEkkXOyR7+xHlwBsNSKSMgQzxOLiUdWw2sngpWwvVBC271TLb4EeJRqdFIpb7e8rHKIXsfdVaPdXOZ71aQpeDxaDD07ta8e8OH8andu7Mu19MFDE8OoqpmzcxdOtW3v1yx0wtQVL8GwMRfcKmYCVif7yuAZ9vaUFXQ0O6p7gQkVgM3V4vfnnnDt7q74OXjcBMUTincB1TCk+hCAolerQrmWJ5+H0ijO4lAVEKPgBI8cz3ZPQUKK0GytsHTmU9P5uW+grsC0RV0/yD8TgGV2tpQ/7sWJXxrPJz2duK3DSV4gGn/LwLfvYFti1HjLP3LfRzyee2zuyrrMQfHjqEz+/bV/DGeHp8HGPXr2Pgzh2IRZZuCi8KEDYCIvqEsma5Yr/b4cATu3aprtXnQyn2b/T1AQDsqWCSlSRVkSndfHR5F/ZRTRQ7cm1l0ohCHKEAnzF8R2+gIMTi6ei+UJQv4zTrcaAxGYeN+CJrIj7LiWKLRcL5om4Dw6RHxmY/hpDMHsgDdHhaA0arAx+PZXjpA0uWwzmP1bbneY1BEMAp/oYgJDMg2dsAGOVJeno9jBqkMx0ynOJ5DaNPb5cfqz2HlAUxxwswMHrwQN7XGVLWywFeAMcweMnjwYsHDxZcu1dbty+G4X6HDxFWHSL6hLJkOWJvMejQ6axKV+DnW6vPJhKL4cOxMbxz7x7e6u9DlBfwkNOJg6k14x9wfE6KNsP7PY9Q8HRyH9mvXt6efeFX87GfCfOIuiQY6fypZYGTMlv3TDQQyl1miAmFL7Rtbivs8eSShVrE76JpuBmVGxCjEQbFbHYuHoddrwenWK4w0DQ4UYRhlQcXZZyGVotoPA5j6sYu32MleoqCkE+AlPunHmfsX+C5jO2pQkh5H+X+eosFgiQlnzMsbUdqnL28LY156e/0NnPWtqzHgkFxDLV9zMCsJGGai6K9uhov7d9fMLr3Li4iPDiI/jt34B9cXtc9k8qK5btJJin+9YeIPqFsWG5ULxfmfb6lBZ9paytYcKREGdn/ZGQE0UAAHknCMQCNs7Ppa2MzgJuK13VWVMCYXcilctGXicbjGBV4NOqZ5OuyRCEYi6F3cTFD+H2sgJkQ0FSgjJ/nJOizqvgNRhrRcOmtijIWux6dESuCYQnerDQ7l0jAoNWiRk0MVJ6z6XQFf14LlAKZ73Gh1yz3PZZzjGLnttzjlnrehfYTJAlTHId5PXDS047/oasr79LX1akpvHXrFm7Oz6N9chLNK+jCMJBivrKDiD6hLFiO4K8khY+U2PdOT+ON27dxaqgfMT4BD8OgS5LQmBUUAUBNluhzoghbie8lk+AFQM+oXoiNWq1qFDQlhNBUsAQKiEaSUbWc5q8NmTFMB9Op/WLjeGUoWgurSYcD9Rb47/E5680j0SiMVisqiI/6pkeO7ptsdvzh/v14rqMDJpUbs3sLC3jtk0/wy6EhaHw+dKRugFeCC4BDFDFx32dPWC2I6BM2lFLF3kxRqG1qwnMuF7508GDRFL4QDOLspx/Ak9fuqhboPWy1oisSwt6ISoFZCnfWz4G4hJqSf7MkXGpyn1rUq6couBkmx52vFKMeSUogGhGhN9Fg9BS4ZgnUpAZi1rp+IcGXtxtNNOoEBp4qC/rnwhnCPy+KmAoGYDAYlx0hE/KjtVoRz2OGs9oIkoRhLgoewLOednz3yBFVkx1/NIp/un4db/f1YXh2Fp2iiKMp4b4fSK9+eUFEn7AhlCr2FoMOD+2oxxPNu/Bsa2tRRzAZvc2GJ6/dxdWpKbx6/TreGxrC1OIiPJKEkwAaQ6GcyD4bxyoVIXHIX1hn1+th5riM9wgkEhgPxwqKfkJKQJQSGWY9RhONUFaxWXbRnxpWO4NoRERXdQWCMRH35jNzD4NsBAZo0Ggu9okRSmW9BF+O7j1OO7794DE8sWtXTnQfE0WcHR3F3125gktTU6iNRPBFAHtX6Ryyb54JGwsRfcK6UnJkbzbjaE01vrK7dVnr9UhdxK4NDeHtsTH85O7dtNg/BsCjksbPhy2rCCmQUCm0yoPA0NDzySrtQhi1WjgMDFjFejorSVjgOERFRrWgT+nPHwoI6Wg/u2cfAMTsKvV8v2ulAQszUXRUWuEP8jnZhxGOg12vX5d1+lJZz2h5syFIEkZSrY+lRPf/8MknmFpcxHFJWpXoXglZ0y8viOgT1oVSxX6lxXlIif3A8DB+OjqaIfYPAejMEvvbgOo6vhI7gFpRhDyXjuN5RBn19fls9HxSNG2yIU2+/SgKNmjgzXp+mhXASXFV0Veu2yekBMILPBi3SbVnPxqOgaY1RaN9Rk+BojRwMDp01Vbj0uRMzvp+fyiELputbNL8RPDVmYlGMROXsKemBr/fdUg1ugeAG7Oz+NsLF/D6nTtwJxI4GY/j4TU4n9XKmBFWByL6hDWnFMGXxf6lzk482tAAi05XUtsdFAV6/zYwUFTsZXpSEciuIsdWSuVKLlpGgwHguIIZglqDAaOSkOF7HuZiCPpicNQVTvEjVc0vp/GNFbq14c0PAAAgAElEQVS0La/McqL9oI9DkwPwxyy4Op1p0DMvihjmothjXj1vfsLqMsCGodEzeLG1Pe+AHDmd//9c/A3eG5/EYQBPAahbo3PKzpgRNhYi+oQ1oxSxl20/n2tvX1YlPlIXr4+nptJif8/vx34AXyuSxmdTBXbDRUTfrLIeyYnislLc9pQPfbFWrBpKhzAyW+6maAFNMJX0PuFQDFV+E9AMRA2xDOFfTrQv1wU02YyYDHGYYjOd86c5HnYtpd7Gt0XYjMsGM9EoRvV6HHUnb5yfbmlRvWnOTuc/A6x6Oj+bYm17pFd/fSGiT1h1liP2T9TXF7X9VOPi+DjeuH07XaDXLEl4oUBkr0TePlLC+2Q3zi23gl9PUUnjniI4DEaYs8yAZsI8/PbCBX1KxphF2ARDRrQfFZNGP6VG+3oTDU0o+Z5dZhsWuXnVNj4DTZfV+v5qspkEPxiLYVrgodEz+FZLC37vwQfzLondW1jAX3/8MV69dR2MmMBJSSrp+3K/GEjbXllBRJ+wapQq9p3OqqIuYGrIBXqvDQ/jvaEh3PP70aLV4mQ8vuyLlx1Af2rSXaG0ZvZ6ZPbEuFIoZQ3crpIC9bFCTopfWcSnJCElIKVG71rtDMJ6AXMhHtOzPNp3WpYV7dtcDAKzHHa4GTRpTDluffOiiFGBh6dIBoOwtsxKEqYFHscam/ByRwc+05y/m/7i+Dj+6uJFvDU4iBatFk/H46tWnV8M0vNRXhDRJ9w3pRbplTquMxtlGv+Vu7cw7WexH8ALADzx+IpSk4ZUa1ywyFpm9npklBcybU5VSFbuL8/MJl/P/gg41Ciq+Av56iekRNqi12ii4RDiGGGi6Wg/mrohKIbJpEsvEXjsZiyEhZw0v5eNwEba+DaEYCyGUYGHzWjCd48eK/h9isRieG9oCN87fx4jfj8eBnA8Hl+z9ft8kF798oGIPmHFlCr2ux0OPNfamrewKB+RWAx9Ph9evX4db/X3wc/xaJYkPJ5as7+fdUh3KlU9XKQfOXs9UvbVL8RyBV9GrWd/KsBhodKMugJe/Ep4ToJ2MQZThQ4MJ4ELiViwiaijKYhCHJFIDCZT8bS83kBBiifggA6d9TaERv0ZhYZItfE5bLaydevbjGvzxZiJRjEiSfhMUzK6f7TA+Fvv4iL+4aOP8Hc3b4LjeTyVasdbyW1aKd0uhSBte+UDEX3CsllO+93z7e14fu9eHKmtXVY1vuyg9+bEOKamZ7EfwGMlrtmXgpy2ny5SkZ+9HhnmYoga42uS1rbpdKo9+7NBHnXVxSN0mWg4BsZEQW+gAIs24/XhgFCS6FvtDEQxAVGIo45hsMduyqnmZyUJw7OzaF9hG99KMiLLYSsJvrx2bzCa8CcdHfjmwYMFl8beHx7GK9eu4Y3bt7EfwPH7MNuZB3CpxG6XfBQ2lSasJ0T0Ccui1HX743UNeKmzM2+PsBrK1rt/GhvB4tw83IlEMo1/n5G9XLEvH6MGgDuRQECrBRuP572RMKukJvPZ6mZj1WoRKjIbPhub0ZQz+GYyxMHjNBecvJdNdDEGi5NBg92IO94wos5UQd8yon1HpSE9xMfjNCMQimEw69wmRBF2jkOtwbD8QTYKwV/rG4DNzCjLYjqRSEf3R+vr836nvIuL+ElfX7o6//FUdf79pvNHaBpTopgWfXaZN98k0i8fiOgTSqLU6H6vpw0v1e0sGolkc3F8HP82MIA3bt3EIBtBi1aLz8Tj9y32MhyAfkWmwAygKR5HN0VhpkgEs9IoZbmCDwC1iQRGsoxMplgeMzM8mupKa9+DIs1vszEIegMZRj/RxdJEHwCMFh2i4RiMNIU9ZgtmpJhqmt+u199X9qPcBX8jbkqUlfl/cuhQwbV7pZXu2ZGRVTfbMQCYVvzcv0x3SyL65QMRfUJBlpvKLzSqUw1Z7FerQC/v+aVa9ByKNGcTgG4AU0VEP6dXv4DD3v2ip6icFD9UCvpKISZIqLQxsBt0GV0ASjOfYpgqdIgJUjLNX2fAHq16mr/c3PpWm/UWfHnt/lhtLb7z4IMFK/PlqXiv3L2F0CKHTknC8VU22+FSf5BK98uiXypG4spXNhDRJ+SlVMF/ZMcO/Ptj6sM88iHP6pYd9FYrjV+MPoXouwHYNZr0xSwf2W17y/HgXwk1WirHlncqwIGrtC5L9EUhDmMsgWq7AVPhTKMf5YS+QigNexJSIm+an7j1rQ6CJKEvGITdbseflNDp8u7gIP7rxx/h10PDaNFq8Uw8jsOrfE7y9yOoWCYLAggsM9InrnzlARF9Qg6lin292YQX9+1fVlX+jdlZ/Oz69bSDntxnv9Zij1Rkf46mMS+KcKUioaOiWDT1yGRdsDieB9bQkc6h18OVOk8ZVpIwEozCUV26IQ6t1yIaEdHgMuHj6SiiLil90yAK8YwJfYVQDvIx0hTa6i0IDAo57YWDbAQOgxHVWzTaX0sEhkYgwmM4GsVn2trSlfn5il/lyvxXb92En+OTznqrnB2TkTtYolotkFqy8tM0+GV0bZCWvfKBiD4hg1IL9R7aUV9wmEc2cmT/y6Eh3PL50KLVrkkavxCOVJQyo7jBOFrC6+wA7PF4evAOK0mIxtemgh+pFL+d0eeI6mSIQ5PNWLJDnyjEoaE0sEMLu1WHBUmEE4CJoZGQEohGRFB6bdH1fWW0DwB1DAOP1YoLfn/OvsPBIBirdcu69a0FwVgM02w4WZl/rHDfPVJLYj+4ehVv3L6NFq0Wv7vGRjtyB0tUqwVWaFAFsq5fNhDRJ6QpRfCX23MvR/YbKfYyjampecre/FLSk2YA7ngcg4rn+NQFcK1w6xlMZ9nyTrE8ghEtHKV374Gikr4C1TYmp/VPFOLgI1LJLXxRxdjeplojpgVeNc0/LfAwlplbX7n27I/G4wiW6KoXicXwk2vX8M83b6JnZmbdjHbkDpbofRyDWPGWD0T0Cctqw/v2Aw/gRGNj0Z77G7Oz+PXwMF69di0t9l8G0LkBYi9jTgl/YAWvza7gj3IcsIZudDadDgaGARvJFNWphSCaK10FnfmUyNG+zcZgLJB05zNRS/92MSHp4FdKml8Z7ZsYGm31FgS9InyskLHfNMfDrS9tBPF6UW6Cn+2qV6zbJRKL4b9/8gn+uvsSoryA46livfXyQzQAMKZS+8u450xDfBvLByL625xSo/vfK9IyJKMW2W+02CvpLHHQTjbZFfwBnl9zC1q3RpNeUpAZ4Tg0RDjUMaVdejWUBhSlgT2ugc2ix4IkwkrpIKZuGkQhjshiDExlcYFWRvsJKYE6hsG83Qofm3mW26Gaf6UIkoQpjsvouy8U3SO1fv9fLl3CG319qI1EcPI+jHZWinzTK7e7ekSxaAFsNmRdvzwgor+NKSb48iS8Ui5MN2Zn8eubN/F305OYGZ+AO5EoK7GXqVvh2mJ2Bb+G0a9pBT8AOGy2HFveUhz6sofyiEIctF6LKiuDqTkeLfU6SAtCep9oOGXbW0K0b7HrEZhduty32hiwATNusZl12fOiiCmOI978CrJd9b7R3g5nkZvoewsL+N4HH+BXAwNr0opXKp1ZP7tX8D0ia/rlARH9bUoxwa83Fx/mgdRF6a27d/HqtWsY8fvTpiDrUY2/UlZyXrZUe58sbQEpluo+XjsqRBFuA5Ozbp5d0Jct8mqPRSGOWr0O98QQfCEeVUYduKiY3h70cbBVGooKv8mkQ1gvpNf2jTSFhnozFrxizlCecvfmX09GWRZBJHCssQn/7vBhfKqAZ76MPBnv7MgIjkoSntrANHn2d8ZDRH/TQkR/G1JM8J9tacFLnZ34wp49efeRxf7n/b34aGIedTSNpyQJng2KRNYaAwCDwmEvEYuvaQW/jMNghDlPQZ/TlBT77PV9tfG7mlRBn82ix9h8BI2tlUgYteDmkkItCnEEfRyqdxSXFYtdj3BASNcL1DEMYgYLFjkxJytxP978W4FgLIaRUAh2ux3fLcEzX+b94WH8n+fPo2929r4G5awV5XpDTygOEf1tRiHBtxh0eHHfQXz3yJG8lfmyt7cs9i1abbJHONX7vlUxp9r2ZFhJAieKa96aZs9jaiIX9KmRT/ABoMrK4NZ4EGxMgkGjgajXpqN2UYjD7+PgqCwck5lMOvARKf06DaVBTQ2DJo0Dt3y+jH1lb/7NnuZXW8op9JwgSfALAmbiEj7V1lZydB8TRbwzOIjvnT+PQCCAk6K46mY7hO0NEf1tRCHBd5mSPcJ/9NBDqtv90Sj+6fp1vN3Xh56ZGdg1Gnw51Xq3FSN7NXLseFfgrb+i92WYnJ79UUmAJyJk9OxHxaUo20hTSz8rXlrlYsDQWgx6F3Gw2QGdnkIokvTS56Q4/HwMcTEOY4UOXCIBg0YDLpGAGIwhYVkSOIlKwM/HEEFK+P1ArVGP6SxTIQCY5pPZBKPBgIQgQKPXIyEI4OJxGFKtjxzDwMDz4BgGiBZpDjMa0/vwej2YVEeB/HzGc4p95L85JKDRM+nHSgzQqNosG6ABr9cjIWQuYfAADHoG0VAIGkafNHJKHaPWZsd329tLju4jsRh+1N2Nv/rkKhDl8PV4fMVT7coRkt4vD4jobxMKCb5cnf/dw+oxhdLqEwD2A3hIIYITKzDsyK78NZT4nEw0z4q68nlZOjiVCw5XYJvaOXIARrO2TycS4Nhwzuvkiz7HC2khQOozUpbfZX9mol4DWkggwQvg9HoYNchLmIvh3KAPeoaCCUkx1hg0SHAJRLAk/hQyI1FxSgNRiGE0yKE3CCT4ZA5BI4iIGSwAFwK8AAxW0HEOFi3AciJiKSHkUlkEA6UBJyWQiMWh0WnTf4PWpG8y5MLHeVHEvCjCIglgtDpwHAdN6jGi0aTgp1oTjdGl+gWDngEn8JCsFpj5GBhlVG00wqHXpx/LMBXWjN/XqMn0UzBmdT1EeT7vtuVQ4XZDZ1qyOW602/FceztqTKaSRkovLC7in86fx3/p60OtKOKp+xhjW64Q0S8PiOhvAwoJfr3ZhD89cgTfeOAB1e33Fhbwd1eu4FpwES6TCUZNUkzP6xkkUhPAGIpais7kKEz5NwBekuBWXJwT0Sg0qZ+51IXXoHLRZQwMNDEenMqcDsbAwKjRghOiMOiXjs0JUSR0S8cyarQI5r4cRoYBn3pvXuWir5QLE4B2AE08X1QcXFlR3Xw0iopEIkMU7BSFQGr9256VIrZZk8IVTPWWyz+vBKsgQHeflsH21PsHUudjz3M+gVAIdqs1/XecZbEYj+fd3yKLdgqDQhwZms5InRtpOmM7AJhTSytsLJZ+nA2jIrg6jSYtxJFYTPV5pFLtOppO/61EbVskFss5RikIwSBOvf8+/vruXTSlBH+7ZM8I6w8R/S1OsTX8r3/58/i6uzHvPjusVvzZpz8NAOBFEQxNIxEKQWO1IhEKQTAaYS0xQjKmLoYGmgYnihkXceXPygu48oIuPy50kc9G7aKP1AU+lkjkPJd90QeQIxD5bIeVQpA+ZgkCoBSOQgJTjuQ7t/X8PZYzwjmbQhbS8rmqnbPatlKHTSmJxGK4dPEiPunrw3HF6OetiGOjT4AAENHf2hSr0n9x30H8UUVVwQuxSafD4drazCfln7OfXwOUF3T58f1c5JUUu0Rnfy7FLuqFRKLU9ykkMCvlTEcrTnxwBXpbpj2KEAzmPLdc8p3bWvweW42YKKLn/fcx1tOzbYr1yHjdjWdtDcQJZcuzLS347pEjsCpSzoStyZPX7qqK+9lPqy/pENaemCji+ocfYuj27Y0+lXWFCP7GQ269tyiFovwHXC78h66uksfh3g+RWCwdIcdEMSOlzosi2FgMnCgiKooZ7U7ydhku9VhMVcxzKoYv2WvE8v501nAcA02DyRoNKq8hZ7dhGRXRqdqyhBJOFBHk+aI96SG+cNmj8neltdqM30H5OCwIMNB0eh/lZyKvpxfkyhX8MM8avXxcKNbalevsDsNSWZZZpwND0xn/zvnWwglLgn+7pwdisU6FLQaJ9Dce8o3cghQSfLPZjG8fPowH2v5/9t49ym3rvvf9kgBJ8DUk5/3QY0YjS6OHLdmyY8lybSt+241rp3Fiu2mbNL2nOV29adqeu5rcdZqmWfecOKu9J87p6olvu3Li9tbXSpNUSuNUSo9aS4kVjRLLGtV6jGyNNCPNe4ZDckiQAAkQ948BMSCH5PABkCC4P2tpaQgCGxsgie/+/fZv/37bND1n5gEfT6WwlEggxHFYYFnEkklcD4cRiUYRFkVMhsNISGnw3IrwhZJJ8KIITrUUSrBbkOJXBgdOC5CQAM5iWVnSJQ8aGIcDwXgcbS4XOJ5fiSCn7MqyL4bngZxBAGexgFENOjJtOy0r5wQAD1aOiSEJOimBsa/GK7AOG1qFwkLKyw8z9bGZ6+IYJ/zpNLgkr5wz8z/HOCElEsq2gu2nV2IKHFZb1utcYtzKdg9jU/5GiQ9ctyzqFpt1JdLeYoHXDqR4CRanEwyXgGC3wAM7HBQFn0+CU2qB02KF0+FAm9MJP0VBHBpA6/sTaG1pUQYVHrsdHW63EpTX6nRWNA/eyKQEAX935gzsTSj4JHrfGBDRbzKe2rwZH9m1q+p2JpeX8X4wiOVQCOOplCLqH4SWEOWXsRRPI8TzCOZUiSuJ3Ew0eTZnqs8p7YsigNTKPoKg/F9i06o3cvbISYE7U0r/8x3LxrFYyn4lEEN+sV+zH5e9XykWlrKPKCrnUdLqZ+41i9X7tAhgTVkgAD//edZLD2ODQ5Bg8zrggR3dTiccjAOtjBODHg98Xi9aKQp+rxftLhe8DgcCDLPGi9DoHBsbww9HRvBIImHagD2CsSGibzKKWfndATc+u29f1YFwyUgE3/rFL/A3Fy+C4/mK3HVulQvcYrPCIRQ2cXPX62csBotjxSqX+KTyutjf6v0Zhx0M1i6E5yAp2zN/KwlkVMlkCvY1484WBECeDshqP53Oew7132uSwyQ4wMmAk6+HcdiVHAC515/vdYLPLn1bDE6SlHX3jGWlXzxtUV5zOSseSv3sY1wKMQAICQBYXAuF8u7nYWxwWG0IOFaWgna3eNHKOBUPwoDfD7/XC4/dDh/DoMvthttmg8dmM/xUQjyVwveuXAEdjTal4DsKZJck1BZj/0oImvKp23bhngoi7pORlVXuXHDFoksuLeFungfd1YWQIBTMTMertvtoGgGaBkNR8FIUaKsVdosFTqsVTIl52T2CgBhNryu8AMBYrUUz5nXabEhKawcadlnoMu9lXpdCZg48sxww87+Q0498bef2JTPAEJNJUHY77BYLEjwPym5X3uPS6YLXqL7+fPvkuz9cCQKeSKez+irIryOpFDiaRoLjwKXT4OUYg7h8jRF5uSMnf18yyYs4ux18OqV4JVYGBynFg5Ob1jeD2+2Gk2HQZbEgYLejx+/HXT092OL3o6+lBV1uN1qdzorWzevF8OQkzkyM49l6d4TQ1Bjj10DQhGJW/q72dvzyrl2Ykx+m+TKFZcQdOQIPACK3YmtL8gN/X0sL9rW0ICYI8KjasVgsyj6VYMkR2UxbmXbV72del3K+9fartt+6oQqYQ558CKVeV+59K+XY3HbUlHOvYrK3IzMASkqSMmAJp1JIpNOIiyKioghOFBESBCymUhBFETOCoAwUZiVpJe6BT4LjOCQ4DpcyA5XpaXxXjoTf4Hah3+dHj9+PQY8Hd27ciLt6eopWi9SbZCSCfxwZgSPBoXBWjNKhnc6Giwkgc/rGgIh+k+CUJHzj7FnMhMO4f8MG/Npdd2ETRSnijiICXwxPzsBBC+HM10Zmm/q9jBCVIl7Vvm9kil1/7n3LJ/6lUM39yf2OqCnW98xgISGKSEoSwhkvgSz0Ga9DXBQVrxInihCSSQguFxLRKBYkCT/5+c+x0N+Pp/v70V1C0Rs9OLm4iB/fnMDmdFoT134xwTfqgKBQSm3IBsvSV5Zq2JvmhYh+kzDKLsNxK4kD3d34NYqC9/JlLK3zIK+X9VvqeY0q1LW8b0a9B1qQGSxk/q84NW17OwDAMjGBxbk52Ftb4dy0SXO3f6FkR/FUCseuXcMkG8fjmp4xP0YUfBBL3zAQ0TcJRV37bjde7OnBY62t6JBdxEYV1VqeUy9xNrIQG61vteyPJEkQOQ6J6Wkkl5Y0F/+fHtqPh9+9smb7dDSKn05MoI2m0Z1nRQmBUEuI6DcBn+rrw8e6uurdDcNhNAEshGHjDRqYjPh/69IlWDo78fDAAG7v7KyqzXyCDwA/u34dE7EI+gUB/qrOoC9GnRYgaAsRfROwnpV/p9erzOUS8Wg8tPjMyMBhBfU9CKVS+LfpaZx47z1sDQTwyJYt+Mi2bdi/YYNmeQFSgoATk5OIcSlsrkMxnXKEnAh+c0By75uc/X4/trrdkCTJkA/93KjwZmlbz77lw4iffb0J2GzY39ICN0XhWiiEV8+dw+8fP46/fvddhDQSwInlZVyenwcAdGvS4ip0Cfk2iJATciGib2I8jA37fT5DP/D17FvuUjWt267n8Wal1oOhj3d24rnOTiVZ1LVQCP/l9E/wlZ/8RBPhz7j222hac9FvREEnwXz1h4h+g1PMtb/dxmBfHdcma00lgpBPXGstLEYm915oeW+0+rz0pMXhwB9u3oxP9fYqwh/jUnj13Dn899OnEU+VlvK4EOeDQcS4FHoEofLVBzWkFO+BHpDlerWDiL6J2e/3I2CSnOXQUBCIlb1K7r3Q8t4YbcCV79ySJCFgs+GzGzbgiwMDGHSvlpr+m3ffxV+/+y5Sqoj7H++5reTzTS4v4+LMSrUGLRLylEOl4t2I3gNCeRDRNyltNI0DedYME/SHeBIKU88BV7Fze202/FpPD/5sYAvubmsDAAQFAd94dxjHxsaU/Q795J2Sz/d+MIgr4TCgw3z+ehDxJhSCiL5JudPnw548ddJrTTUCWC/xrNblTTwJjUfmMzsYCODLmzbhKXn53myIxZ+fPIn35GC8fMl3CvHv8/MIxuPo02E+n0CoFCL6DUyx+fz9LS1F05/WimoEsNxjtRok6Ony1pNyr594JPKzy+PB/7l5Mz7RvSLV7wSD+Lvh4azaFOsRT6Xwruza726Q+XxCc0BE34T00TT21iiAz2Kx1F08tMxBsN61GOVa81Hu9Vd6v+p9D7Qm3/X0MQz+aNMm/OrgIADgjevXcXx2tuQ2p6NRZanekIZ9JRCqpf6mIEFzup1ObKlBFO4Ux2E8kUAwlcL78TgicsCTT44n6Hc60cfov0hH7+Azvc5VCfU+v1H6UIxyExEV2rfD4cB/3rYNVocD3718Gf9y+TKe2b69pDYvLyxgIhaBm6IwVELJ4maALNczBkT0TUjAbodNR2vsUiyGt+fn8b+Wl1dEP08+8dempzHU4cFeyoM7PB7s8ngw6HLlba9ZIVny9EHLe9ouivg/7rsPM+EwTs3O4r35+ZLS9V6fmkKMS6HPAFNsRoKRqyES6gf5RpqQ7S6XLvP5CzyPfwiFcGR6CmNsvOi+rCji3GwE57AyD7rL7cZznZ14pqNDKfrT7JihuJDZETkOHTyP//3AAfzlmTOI8vy6x8RTKby7vAzI8/ltNehnI1DrFMSE/BDRb1CKBfH1a+zat1gseCcSwauTkzgRDK493+aNOLj/HiRTKczMLWEpuIBQOIzlhSBY2bV5iWUxfvMmhpeX8dkNG2qSNEgtdM0ues187dUgSRLouTk8cdttaH/4YWwqIXp/KZHQLfVuLdG6AA+rWUuEaiCibzLcFAW/hlZ+TBDwk3AY/3NyEuei0TXv7xzaht/4tY/jnrv2AAASCQ4cxyEUjuDCxcv42fAv8O7Ie4Bs/Z8IBnElEsGLAwP4eCCgq9WvFjoierXBjIMrIZHA8gcf4L677y5p//eDQczG43BTFAY0nM8vRYS1FGo91vpzVitAXPx1hYi+yWAsFgRsNs1+/D9YWMA3x8cxlWfe/q69t+PTv/4Cdg5tU7Y5nQycTgaBgB9bBjbj/vvuxVun3sZPT5/F5dH3AQBTgoBvXr+ORG8vfqe3F167vep+ErSjGuGuteCX09dqByTJSKSkdfqZ9fltNI1SV/WX8nst5fds5KQ8XL07QADIkj3zwQBgrFZNfvyvz8wogu+mKLSpPAh379uH3/70J7MEPx8dba34+EefwRf/0+fw3DNPwu1emdljRRGvTU/j/5meRizPgMIM1HtpW6XnzxVGva5Di7z/WkTpl0LG2i+FCTkLX48gwF9G+wRCLSCibzIsDnvZ7v18D9t/mp9XBL+NpnG/ywW/7JbbsKEPLz3/DLZv3VLyOXp7uvCZ33gJz/7y42uE/9XJyYYQ/moy89VjAGD0WgWNNg0gcty6CXpCiYSSb99HgtcIBoSIvsnwwQJ7lWljzy0v468nJxXBf87ng8dqxVg6DQ9jw9OPfxi7dpa2XlmN08ngxeefwyc++gza5fzmGeH/ToHEJ/W2ltXUMrtgM6JnciUtvkeSJGH5gw+yCvDkMhmNYiZSXb79elW6IzQHRPRNht9qBW2t/GONCQK+OzeHSyyLPprGC34/2hkGw+xK7O3Qrjtw6MH7QctlSMvF6WTw0V95Cr/67FNZFv+R+XmMxdcuA2wmsTTSAKccatXvUs5T6PuiaQIntnAc+o1QCGPsShBfT4Xt57r6ySCAoCVE9E2Gs8rEPMeDQby5sIA2msaTPh/2uly4lkxiShDgYWx45KH70NFWeLlgSX10MvjIk4/hsYcfULZdYlkckZc5NSuNOsCpVb+NcH9EjgOXZ9lqhvO3bgFyQK1WNS7JfD9BS4joNyDF1ujbKarixDwLPI+jMzNgRRF3O53Y63SCT6dxRbbAtw0N4f4DH6q432qcTgYffeZp3LX3dmXb8aUgzslJTbSgUS1ngnGRJAnJpaW8c/spQcBYLAaUGcRHINQSIvomIymKFQfFnR8HzlEAACAASURBVIlEMBKPY9BqxS95PHBYrbiRTGKcW1lsM7ilH06ndhm0e3u68OxHnlTm98fYOI5qaO0bwTKsN2Tgoz2FLO+5eFxJylPvID4yJUAoBBF9k5FIp5GqQOxigoAfh0JgRRGHAgF02WwAgHGeByuK8DA2bB/apXl/79pzOw49eJ/y+tjCAk6HQpqfp1GpVrRrnerXCNSiH/lc/DcjEUQSK16xemfiI1MChEIQ0TcZnCBAqCDjVUQQcJWNYZ/Xi70qK2FWbsvf3oktm7WvCu50Mjj04P3YsGGl7aAg4IeLi4ZYwmcEEWskb4VR+lqLfiSXlhBPpZTXKUHAYjyOSbkmRaVBfASC3hDRNxlcOo1khQ89v5XCnXY7HKro/7As+pv6etDZVtosJUXRyj+Hy4v2rl509mxS/nl9AXh9AdgdDCiKxs7t2/DgwXuV408sLuIn4TAsFktdhdcoIkbQhlK/S6XsJ3IcBDloDwBsNI3rclIeN0WRMrIEw0LS8JqMCCRwFVj6dosFd9rt2M6sPq7CoggOK8IXCPjXnc+nKBoUTaPF3wp/awcoioK/rQsOOb++KAqgqJWvHM/z4LgE0qkkkkkOz7/wSfzbqbcxMzuPoCDgyPw8Dvh8CMjTDIT6Yoac+qX2v5LrTAkCLk5NAQD8GkbuEwhaQ0TfZEh8EuEKXOOdDIOPdXfjlqqoDp9Og+OTAAC/r3BVvIzYd/VuQmtnLzwej7I9d78MDodDGQwAwP3uFuy7+x68+eaPAABnwmGcW17GI22kMKkRaHTB1wq1FyAxPQ3npk2w0TRiqRRmkytldwOCQCx9gmEh7n2TEZYkcGVW9irkzoxZrUqRDI9nbSxyxoXv8nixfddd2LRlG3w+v7K9HDweDx588CF4mBXLnhVFzCWTZbXRiFQ6faGlq7rQfkaIaTA6mUQ9wUQCE6EV9369I/eNDCm6U3+IpW9CEum08sAuxUIrtI+4tAROfi+VXHHNi+KKFyFj3W/ash1tnb1ZVnslUBSN/fv3o7O7B7HxmwCAG00Qgax3Nbtq9jObda/HFAUXDMLu8+FmJILZxMoafbI+n2BkiKVvMlhRRFgQIElS1Q+4RCIBVvYaRNmYIvgA4GCcGLhtJ7p6N1Yt+Bl27BjClq23Ka9nUinNovjXs1qJVas/xe5xLe5/Kb+HUvuh/n2lBAGTwSBi3Eo0f72X6xkVYuUbAyL6JiSiWkpUDeHW1cx/8fiq1U1RNHo3bUF7V2/ZbvxieDwebN7cr7yeF0UkRLEiQcg9Zr0Hvtms2nqT7zMrdo+Ncv9L+Z6o90kuLUFiWSzJmSTdFIWA7r0kECqHiL4JCWlkHTOqB/fM7BwSCQ4URaOrdyO6ejdqKviQBxNDQ0Or54xEsFxmfEIGoyWlMVJRmkr2LZda3f96e2gySXAm5IE2idwvDA8o04WE+kFE34RUsmTPYrHASdMYE0WcisUwynHwURTccjU9juMRCkcQaO/Exi1Dmgt+hv7+VUs/LEm4kUgYxgosRDVxE/XoSyX7GpVqr0GLQcPyBx8gNj0NAGDSaRK5XwBOnn4k1Bci+iYkVkH+fUmSkBAE/HRqCn+/tITDS0uIiCL88kMxFA6DB4Oevn7N5vALoS65W8nyw1pRbyuzkTHKvdNi4CMkErgh16formDA3Uy4KyzJTdAOEr1vQoKyq7HcaOVWtxt729vhs1rRKgjYIAjoFgRMAViOrixNCrR36tZvAOB5DqyqXvm4gSP417u3Zkhooxda3Bej3N8FngcnD079ZLleUYilX3+I6JuQRIXr2xmLBff7fNirCgRsT6eBaBQsy2L8+rWsrHp6wHF81us5jkNMECouF1yIWghGOe0bRcAaCfX90uv+ldJuUlrNgkmW6xXHTVFE+OsMce+bEA5AQhTLFh2v3Y4Akz0j2aFKgzv8818gFsteuqc1oZwKe2Gd3KVGE9hS+1OuW7xZkvPo9XmW0i6XToNLJEjk/jokiKVvCIjom5BKAvkyDzenyqKey1n6N3J+BGfODOts6Wev5m2z2TS38huZcsWtkZPzNMqgg7FaAScDv8WCrnp3hkBYByL6JiQCCfMVrtV3ykF6YVHET2MxvCWvPwaAxWAQJ0+eBM/zRVqojrBcqSxDuyAgJghrBMCIgmDEPumFUZLpGAG7fC/6BQGkUkRhSHIeY0BE34Qk+GRF1j4AdDgc8Nhs8FMUfsnjwbN+P3a5V0OTjnz/u7g8Mqxhb1cRRWHNgKLH74ff610jAEYUBCP2SS8a8Vq1rleg5hDjxN72dtBOZwU9aw6I6BsDIvoNyNJXloq+z0kS5pLJiuvRb5Qz8XXZbNjrcuFO1RK96+M38XeHj+oyr//BB9cwcv581rYuu11JgEKoP43szdCjtK7FYgFjseBhvx93SBL5rhIMDxF9E8KKIuJyIF8lFpmPprHR61VeDzkc6FPNqx89egQ//OGbmvUXspV/9OhRjJz7ubJt0O3CgMksJ6OJZrn9MbKFr+W9LbetmEapr80MsfSNARF9k1JN/n0PTcPjcimvu2w27FaJ7+TkFL7xyisYHtbOzX/x4iX8w3cOK0VLAOAhfwCDqn4YmXIKtRiJevZH6wGQltdSjleAkyR4VKtcCPkhom8MiOibFHX+/UofriPxOMLyEptf8ngwaF39urx9+jS+8cormJiYqLqvPM/jjTfewHsXLynb2mgahwLGWQC13j00mpg3Ama5ZwmeJ5Y+oWEgom9SIirRr+ThOptM4nA4jBPLy+DTaXTZbDgUCGSl0fze97+PP/3TP8Xo6GhVfT1//jyOfP+7WdvubW3FHtUUQ70p9x7q7cY32jQBAbDE4/XugqEhlr4xIKJvUmaTyapq0ftpGv50Gj+ORvFWNAoA2Ot0Ym+Ou/3111/HH/zB53Hq1KmKgvsikTBee+01XB+/qWxro2k83dbW0Ovza5XtT0/xN8vAwizX0egQ0TcGRPRNSqLKTHZddjvu7lzJs3+SZXGWZeGwWvGkx4N9ORb4iRP/is/93u/iz//8L8qy+udmZ/HKf/u/cfjwYWWbm6LwQk8PHvCvn9BUyzKyjSoMlQwuGjX+oFL0vA6LxYKEPLgmkfvF0S+7B6EciOiblHAyiUQVKS+9NhseaW1FG00jKAg4FolgJB5Hl82G5zwe/KrPhzaVJX559H187b98Bb/z25/Gyy+/vK74X7hwAZ///Ofxf/3Xl7MK7DzX2YnPbthQkpWvZRlZswhcKTRLrXu9yc3LT9boF4YtYR9CbWhc/ymhKBwkLIsiOio8XpIk3Ov14t7WVvzz/DymBAGHw2HMplK40+XCIa8X3TYbhnkeo/E4WFFEjEvhZ2ffwc/OvoMfHD2KT7zwAl584QV0dXcDcsDe6Ogojh07hmNv/gA/O/tO1jmfKkPwG4lmLaajZUGcSo7X+76r206zLERi6RclYbUCeTyQ6+UdIWiLuZ6uBAW+whz8arx2O36rpwdziQTORaMICgK+H4lgmGWx2+nEbqcTz3k8GLfbcT6ZxDl57h8A3jl3DqOX/h1nh4fx+5//PCYmxnHs2HGcHR7GtbGxNed6qrMTv9vXh76cgj9GpRxB0Ut4KhW1egxCqj1fJcfX4hozcTNWtxtiMKj7+cohY12HAUQAMAAcpPxv02NZ+spS85kgJqH1S60F32ujaXxjaAgHNVj2dikWw/+YmsI/z89nbXdTFAZEEX3yHP81lsVYnoFG/+aNWFhcynLjZ+ijabw4MICPBwLoUGX+K4dmtaTNRqN+jleXlnArGoW0sGCIef0ggDkA5wGM0zTCqnvKWCzoEQTcC2CohuIfBPCa1Zr3+UAs/dpCLH2TEhQERDQqY7nL48GX+/vRSlE4Mj+vlMdkRREXAVxUWfj5GJ+4lXf7wUAAL3V346n29qr614hC0UjUSoyN/jnmuw/VrJDRmiCAYQCjanHN6R8r73eDorBXFPEQgL4a9Y8r4N4n1BYi+iYmpGHCkA6HA5/buBFDbjeOBYMYld395eKmKBzw+7G/pQUPtbbWLeOe3kLWaFZrsf420nXoSb77YJT4k8sATgK4CGQJaxtNo9vhWCn/K0/5cZDA8UmMUBQginiWuPubCmN8Ywm6ENPY1djhcODXenrwVHs7zi0v41QohDPLEcyJqaz0ubm00TT8DjsOtPjwYCCAe71eeO12TftWLloKWT7BXK/9Wg0KSj0PEfbKWazzKoXTAI7Lq2xy4emVvnXlrCxodQiQlpYQltfPE9FvHojom5gFndoN2Gx4pK0N+30+THAcJjgOcVFEJJXCTDIJPp2Gw2pFj92OHoZBh8uFVgCDLlfDWcAoQTiNGmRWy/M0KzFBwMmZGWxnGPjqcP5zOYLf092JaDikDMJjXAqXkAIHCT0+P1rk/ZZoGlsA7K2h4JPkPMaAiL6JiWk0p18ID01jl8eDXR5PljBm5jm9qiIkjSw+jdx3PWjEgVsGrfs+l0zifDIJH0Vhs8+HxRoG8l3PEfynn3gETz/5KG7enMRP3j6DCxevKMGzY2wcHJ/EDp8PdjmV9mxHB5yxGDoTCWLpNxFE9E1MMJVCTBB0n3fMfZBmzpfv4doIYtHIoqYV9Z7j1+sz0LpNLp3GbCKBOZsNoRq6+VkAbwGYUgn+r7/0PDraWrF96xbcf+BDePvMz3H4e0eVQNopQYCf47DZvSLxcYsFP5N/q2Rev3kgGflMTCKdhlSDaFmzCaTW8/2NSL0/Uy3OX829L/XYTC6MGzWsssfKQXvn5NdPP/EIPv3JT6CjbXUJr9PJ4NEPP4Df+o0X0dPdqWyfEJOYU3sjaBqjNI3qSmatD3HtGwci+g3MeutbZ5M8lskSGV1olPz1egw6Km2z1gOgau59qcdyoogIbampqI0AOCm76LcODuLpJx9FIJC/VsXB/ffgxeefQ3tbGyDP8c+lRSTlqT+n1Qqetugu+jwAzmTGQaNCRN/EcHwSYQOtIy5EI1rD9RbzXArdw3q4yGvZl1LR6zuWSKchpdII50k8pQdTAE7SNFhRhIex4YlHH8TgwOaixzz+6CEcevA+5fUkG0comVRe+wQJs1YrjJVPkKAXRPRNDKdBKt5aYDQBbUT0zjlglL5Uit594qxWvC9b33oyrprHv2PPHjx0/wHQ65yXpig8cHA/NmxYTcOTsfbtFAXGYUfYaiUu+CaBiL6J4SRJ0wQ9hMI0oreiVIwo4kYjLEmwrpOZUgvUbvjbd+8o6NbPZdttgzjwobuU1yGOV8pv+60UOElCRPPerkIGFMaBiL6JYUWxoHvfzCJVDyqpAEdoPHI/N6ec6Y4VRSR0Xq43JefSB4A2lwvbb9ta8rEZaz8zt8+KImaTKxXumRplFWR1XkJMKA0i+iYnorL01Q8sYr3VFzJIaExyPzeGosDIn01I53NH5JoaANC7ZQBbBjaVdXxPVyc6O9qU12E+iaQowmm1grFYdO1//csQETIQ0Tc5IZWlT4S+cSGfnfHR24V9RvX30LYtcOak1l0PhmHQ3dmhvOYkSXHxg7jgmwYi+iZnsYQ5/WJWJLEwCevRzN8RP02Dkf8O63getWvfw9gwONC/bgBfLk4ng/7Nq94BVhQRTiZhpyg4HXZdRZ8MKIwDEf0GZ721+mGWRUwQij6Ytc4rn49mEoZmulYQLwQYx0rxKD2FbVTl2ve3d2JwYDMoqvy5+P7+jXCrBgscJGXNPhH95oCIvslZBJCSH8p6itF6bTeTMFRyrc02UDALLSoBjcjZ8vRA7UXY1NeDnu4uiGL5OTh6ujrRkjOvT2guiOibnHBahJBOQ5IkXYW3mUS9EiwWS8XelnpDBiSFoa1WMFi9P3rlr1eL/kD/Jng8nora6ehoQ8C/uswvM6/v0KCPxdBz6oNQHqTgjsnh+CRu8jw6HHr/rAlQCaQkSYgmk7iZTGKG57OWTtotFrgoCgGbDd12O3w0rVQk1HI6Rau28rVTSftGKWSkZT+EdBqMddV2YnUQ/iCAsNUKyEF3Ho+7IisfAJxOJ7ZvG8Tl0feztvOa9JTQCBDRNzlhSQJH1seWRTWiEE2lMMFxOLa4iKvxOK5EIghL0po1ym55qZffYcedLjeGPB7s9/uxq0ILLhe9xbWUVLy5+xQ7ppYDAi3P46QoJZBPL7gc0a8GmqIQ8K1a+qwoghMESDq7+cmcvnEgot8ERGTBMYqllYvR+lVpXy7FYjgyP4+T4RDG2HjRfVlRBCsHZ42xcWBhAYNuF573B/DRvr6G98yUew+1qqpX6+9RSpIAOao+oZEw60Um8M/lzl7qZ7HbwaRFMDrV6WCJ6BsKIvomhxVFhFIpwwmrGqP2qxjqee55jsM/LSzgyPw8LuUpvNIdcINpaYXVYkFSECEKKaRSIhaD2SVOxtg4/pLj8dN4HC91d+MBvx8emq5LUiUjf18KUU5/tbo+Ww3iHXIr1NnkqaByyUwJ2HOOd6TT8FsplJbQtzSmADAAMiGDhTwV660+ImgPEf0mYIbnG+4BXgm1FqpoKoXhSATfmZvDieDaGmWPHHoAd+zegc7ODnR2dsHltCOVTIHjOHA8j4uXR/HexSt4/9oNZQDAiiJOh0IYj0bxblcXnvf7MdTWBkmSCgbU6XHdjfh9Kec+aHV9qRrcp1wr2ePWNmqAEwQE7Hb0Op2ARqmEeUDTQQRBO4jom4Clryyh9UutBd9vhEp7WlCrOWOLxYJoKoUfLCzgm+PjStWzDB7GhiefegKf+OgzawqiCKKoJFXZObQNH3nyMdyYuImLl0fxs7Pv4r2LlwC5ktq3pqYwHA7jPwgCnunsLNj/Uq9L63tQ67bW269uA5UGKF9diMyafbuGFQKDAByqgMawhjEJhOohot8EzKRSiAkCPGUU1tDbatbqQV8qWl5LMcF3UxQefeyRvIIPOZBKjdPJYNttg9h22yDuP3Av/vGffoSfnv65YvlfYln898lbaLPZcDAQqKrfWt6DerRVC1Ev9/smpNNZljinQ/S+OlDQw1Tm2ldjt9uVv/UogqN3YCOhOsg6/SYgUkF53dwHn9ZrtY30oC+HmCDgO7Oz+Los+INWK9pUg6mHHj2ET3zs2ZJLnkIeCNAUhd6eLnzmN17Cb3/qJewc2qa8P8bG8fWJCZxbXtb8esxI7ne1nO9uud+3pCTp7klTDypiXAq0Q69sANrgVs3lI09MAqG+ENFvAsLJJBJVjujXc53Xilqcq9g5frCwgG/euoWgIOCg14utbjd4emX/u/ftw68+9yvoaCs81bIeTieDRz/8AH7vP34G9x88qGw/F43i1clJjMWLrwqoB0ZL3lPOUsFKyVwzl06Dk+fBOas+j9Ncyzke1bYeHkPTcEkSWnQqDcyRsrqGgoh+ExCBhGUdf3S1tMZrca5C5zgdCuHVmWkEBQEPA9hht+NiIoEYl8KGDX146flnsHlDtyZ92L51C37zxedw197blW0ngkH8zdQUFnh+3Qx/taTUaRozob5m3qmvQ9sBKOV7AWBufqHitqy2tX3lBAGUjvkG9C45TCgPIvpNQIJPZmWEI5RPTBBwdG4Ok2wc+7xe3NPXhyvJpDKn//TjH8ae23dqes4tA5vx6V9/AVsHB5Vt35mdxd/OzCBawZRNpWgh2EabpslHpdepd2IbJsfaj1dhkadTHJLJZFZsAEPTsCX1uwaSgtdYENFvAnjagrlksm7Wll7nrWVJ4AmOw5lQCG00jf0OBxY5DiOyq/3DDxzEoQfv1/R8GXYObcNvvPSr6OnuVLYdnpnBcCTSkBnszEZYEHRPPMMAYFRxA5HwMoQqPHdsPI4YtzJozETvMzo+G0hiHmNBRL8JiHEpxOs4p6aXaNRy+dZINIopQcDdTid6bDac4TiwoojugBuPPXqoqnn89bj3nrvwzNOPwy2vzw4KAk4sLSFWZ+9NPV32epy7ku8MJ4pKTIeeOFWiv7AURnQ5WlE7gigiFstOIOW0WkHzfE2KBRHqDxF9k7BeZqsgyxZ8qFXyADXbHG0xYoKA8VAIfTSN3U4nxpNJJfPew489jjv37F5jeVVjieVCUxQePfQA7ty7V9l2Qs7tjzp+Flqu06/XubVASukbve8G4FO9jkaXscxWbj/PzS8qf2csfK9ORsFlAKMa5gAgVA8R/SahWOhPJQ9QPSOijYTFYkFCFOGjKBxqacGA3Y4r8vxnT3cnDt53L2iKgsOenSvfYXdoKvzeFi9++YlDaHO5ANnaPzo/X3drXwuMJOD5KPa9jKg+Yz3d2P2qv2OxOObn5ypqJ5VMIby8auk7HXbYKQpLiQTW5pSsnvMkct9wENFvEmKiaDiByH2YFirhqvV5ykGSJCyxLIYYBg96PEhIEq6nV0R/144hbOrrBVR5zSmKVsQ+I/wURWdtV0NRNFxuL1xuL+wORimKkgtNUdi9YzvuvO+Asu3McgRX43HDi6ZRqDhQr8j9FdLpmohaQDX/vhgMIhyOVNROLB7HUjDbBIgkEjhK0zguF8fRiiCA8SIJwUje/fpAMvI1CcEaRnuXSiliVUkJ11LaKCfzWohbteHGeR7L3IrA333XHjhzlmvxSV6x+jN/80le8QY4GCcomoa3xQ+XpwVOpxsO54r1zifiSAppJBPLYGMxhJfmkeRXz+10Mrh7z06cOTMMlmUxxsbx1tIS9rW0lHQdlV5/I1HsuvS43mROm3pZ+10A/BaLIspXP7iGQw8eXJPhcT0WFhYxt7Bq0/tgwWxaRFAQMEJROCCK2KJRn8fl0t4EY0FEv0lIJJOQTJj7utIHeamDiah6KZPHg2uhEFhRxJb+Tdi1Y/ua4zIin/kbAFpa/Gjr7IHL7QHjbgHDOEHT1Bqr3uX2yH91QxQFLIeWEA4tIjg/gzi7Erh19513YPttW/DuyHsAgONLQXykpQXbW8sLJGw0wS91kFLr66ok22UlMAACgoAp+fW16zcRCkfKDiC9MX4TrByPkvEczHK85v2FLPrEtW88iOg3CbNpESGOg1eVd5tQmIx4hDgOMfnBHo5EMBVdEd8dQ9vQ2dm+5ji1pQ8AbZ292DiwFW5PedY4RdEItHci0N6Jrt5NCM5PY3F+BgCw9/bdiujPcjxuSRLWDj/MRT0GKUbyhrhla/+i/Pr6jXG8/8FYWaIviCJuTNxUXltsVkQgKcLst1jgKHJ8OUwBGKXphi5GZFbInH6TwPFJRHVKE2pmAgwDn2ztz6ZSuCFbR9tvG8zrWqUpCqIowOXxYuuOO3DbzjvKFvxcXG4PNg5sw5ahPdg4sA33PfiwsnyPFUVcNeDUjZEpdW6/FMEP1VDU1LkeWZbF2V+8i0Si9AmF6HIU167fzNqWUCUW6hYE9GnS0xUrP7cYFcEYEBUwEcUCYyK0BTO8Pm68RqOcgK7pWEz5e04QwIoiPIwNfr8v7/4URWPjwDZs370PXb2bCgbmVYLP58fAbTvx0EMPYfttqzOvt6LRsoM0qylKU845jLgiQ0vrvZZlq/sB9KkC487+4jwuXrla8vHXbkxg+voN5XWMSyGo+t4MadjXcXn6oK+Myp6E2kBEv0mIcSmSilemnIf+cjCIiDwlsiBb1BJlh8e9NpWJ1xfA1h13YNOWbar5ee1pbwtgy+BqFb5rLItUmVURa1GURpIkw7jHtSZzf/kc0dczC38fgL2q3/BiMIifnh4uaWmoIIo48W8/QbBAwaZBq1Uz0Z+So/a7JSkrkyDBGBDRbyJqFXRkJrq6uuBLJsGn04jJ8/lOhoHNlm3BeH0BbBnao7l1nw+3pwWb+1dXbs+lRUzneHHqmTinkc9bDjFBwFKO4OqdcnZvHmv//IWLRY8BgPMXLmLk3y8VfP+hdDqrHG41ROSo/f4igk+W69UPIvpNhHr+sdqHai3z3teThCAolj68XmU741gNefL6Augf3AGfz1+zfu3YsUP5O8TxmOA4Xdzp9bLUS8nZUM/vmSRJ8OS4rnML4+hBPmv/n948jumZuYKDzUSCw9tnz2MxmD/9zm6NXfs35Ex/fgBhEkdkOMgn0kTMcZwy91vtw7zUvPflPJiNPFhwWK3IOOwZJwOGWXm82x0MejdvR6C9s+jxWuPzrcYUsKKIW8vLpnano8wpiVp8l2KCgGQdlqTlWvs/O/sODn/vKBYXF/Puf3NqGufe+UXe99poGvfKqwO0gAUwAWBIENAjZ44kGAsi+k1EWHa31TLAqhwRaiTB4uSEPf6ufnR1d6+7vx64VXEFUau14Gdq5MGUXtTiu5SSJCTqMGeda+0DwI+On8CRHx7LG83/1qm3MTM7n7etvYKAfRr2jQPgAHAngBkN2yVoBxH9JiKUTCoBX40ksIWohZg580QfJ5ZCCIbC8PoC2LihV/c+5INhGDiZVWdyoEiUtBk+ayMipNPgVOLLpNO6u/cz7JWD79QcffPH+Nv/7x8wPbOSl5+iaFy9dh3n3r2Qt419AB7SuF9tAJ4AsJNU1zMsZD2FyVj6yhJav5Q/YUc4LSIuigiYRARqIWZOx9p0JcF4HPPzC+jq3VT1GvxqSHDZVh0Rd+0oNTFP7pI9TkNXeTH6ADyXTuMNmlbWw7Msi+/+4w8x+v513HfvXRjo34z3Ll7G9fGba47fLYuzVsF7uX1jAVRWEoigN0T0mwiOT2I2mUQfUyt7pPFhVN4Ej8qyujm9CF9Aj0dmaczNzcEiriZW8dlshsog1+iUch9z8+6jBoF8arYAeE4QcEQl/ADw3sVLeO/iJXgYGyRqbQbO3QB+RRZnveAAhApk5COR+/WFuPebiLAkgdM48Mjs88UWqxUemw3IcaFfvTqKW5PTdevXlStXEONWl2DadVyNoeexjQyXTiOsWirprMP8/k4ALwoCHpaD8tTEuJSSZx9yspyDNRB8yMv29F6+SKgMYuk3Eawoal5tr9aWZa41q7d166FpBBgGsVQK7QyDNppGUBDw3sVLOH78Kz3zSgAAIABJREFUOIaGtFzsVBqRSBgXLowor90UBdpqreo+1PJYrT6zeno2MgMdxmFXrNmE1QrUQfi3yP92CALOy4lxwtJKTn03RYGxWLBXEHCnKKKrRtMPIRK5b1iI6DcZ0QavelWLTHK5ZIL5Nlgs8DvsysPsxz8+jhdfeKHm0fszM7OYnryVta1aSz8XPQVVq3brOZWR79zOdLomglqInQA2A+AEAXMAEgCcoghfDSz7XGZrfD5C6RD3fpNB8u+Xj9PhgMdmgy2RwFbrapGdM2eGcfzHP655f8aufYCJW1PK627GgQGns+TjS3HHk9iA0jDar8ktB+ftlKPzd9ZB8EFE39AQ0TchxQJlFpswFW+1c85OuZqe1e3GVodDqUPOsiyOHj2CudnaPuLeu3gpa672TpcbXXa7ptXjzIhWsQeZdsKCAElVpU6rsrSNDlskEx8J4qs/RPSbjGAqVXZFNj2pRRBYtSLnoWn0elby8e1gGOx1uZT3Tp74F7z6zb8CXyMPCs/zGB0dzdp2byAAD00bSsyNGNyn5f3JXB8JVltLmKTfNTTkk2kyQskkEqKoa+79cjCSUBXD6XCAT6fhsFqxw25XrP0Yl8Jrf/f/4ujRIzXpx/nz53F2eFh5Peh24U6v13Ai2+gFf4qRSXecuxLGaK7+ehEBwDXI77oZIaLfZITTYt71xeViRLHWUiDytfXDSAQj8Tj2Op1Z1v7k5BRe+forGFaJsR5MTEzgG6+8gmtjY8q2Ay0+dNnthvw8tMCs12VmZuSVQgRjQkS/yeD45MpcpEEeploKtZbXlNvWTZ7HpbSIw+EwhuNx/FJLS1bRk3fOncOf/dmXdRN+nufxzW9+E9/7/veVbW6Kwh6vd021t/Wo9J7XwuputHwBPL16TjKnvwJJv2tsiOg3GWFJWjeCv5YPd6MMPtaDsVoh8UkEBQHHlpexyHF40udT3PwAcOLEv+om/IcPH8bfvvZa1rZ+hsEBVbW9UimlbG2px2lNvXINVIpDaIzvby0pJPokiM8YENFvMlhRRHidQD6jPdyNMK/babOh3+sF5KQjxyIRAMATHs8a4f/iF76AU6dOQRS1CZgcHh7GN175elY9dDdF4cWeHs1SKusR5LbetkZGCeTLuW9sgf2bCRLbYGyI6DchcxVkUKuWatowgjegw+HAgfZ25fWULPxOisL9qvl9AHj79Gn8wed/H3//969XLfyZefz3Ll7K2v5gWxsea81fWKne5Pu8jPAZak1EFNfMXdczOY8RIIMe40NEvwkJxeNl7a+FVV5qG0a2CJ9oacFB2dpHRviXl+GxWvG4ajvktfRf+OM/xp//+V8gtJi/lvl6XLhwAV/96lez5vEBYJfbjd/q6UFHngqAhOoo5fuXyVYo5KTcJWWsgAkAN1SerwzEtW8ciOg3ITM6rtWv1qIzskU46HLhP27ejEH3qmUfFAQcj8WwKIux2tW/GAziT/7kT/DF//wlXLiQv6Z5PiKRMF555RV8+lO/iW9961vZfXC78LubNmFfS/1K+tabcqYPyh1ElvL9M/J3tJ4EAZwkkfuGh+Teb0IiiQQSolh21DcBOBgI4NNcL75644bycGNFEeei0TVVzjJ861vfwtXRUXz15Zexf//+vPuIooAPPriGCxdGcPTIURw7fjwr6x5kwf/C5n482t5eUHiaobxuOdMHehZn0mLpq5kYAXCx3p0grAt56puUpa8sofVL+ed8Z6tYq5/vwdkMQqPmmbY2zPA8Ds/MZFUSK1ZV7O3Tp/GNV15Bz9e+hg0b+iAIIsKhEGbn5jAyMoIzZ87g/Lmf4+oH19eIPQAc9Hrx0oYNeKStrWjfzPrZVHIducesd3y55+CJe19hCsAwTSsVB9UQ176xIKLfhIT5JGaTyYoivxs1SEtL8fPa7fjshg3odzrx2tQULuUR6XwcO34cHM/B5/MjEgkjHApjfGIcoVA4r9BDrpH+gt+Pj/f1YVNLS9nX0QifTSlUch3lHlPJOdwU1fTubFZ2608ZKL03oTBE9JsQnrasSSFaS4uw0LkaoZxrBg9N42NdXRhwOvHq5CTOhMPrPvxZlsWbb/6opPY3uF0YYpz4SHs7nunsVO6NWUTcDHB5ovebkQkAo8TKbxiI6DchMS6FmWQya1stxaSU+ddGYV9LC/7r4CBOhcM4GwphOM5iki1vdQRki7GfYbDb68XdLS3Y4XZjM8MocRe1vjdmmRbIRc/rakb3fsbKLza1RTAWRPSblHLX6jcLlYhCh8OBj3V14Ym2NlyNx/HO4iL+PZVCUhQRBpDgOHCQwPFJpSpbJqnL3pYWDLlcuKulBdtdLnTZ7fDabHUX3HqfXy+qua7c70aICB1GM0v08ng8iJVvTIjoNymzsVjFx5YijLWyFLU+TzVteWga+1pasK+lRVkSmZAfhklJApdOIywI4EQREVGEj6KwzeVas97erIKrRqvPrZYeiWb4XMplhCzRaziI6Dcps8kkYoJQ0bI9I61lNuqDOHNf893fRqs7sB6VCK9W126We9iIXAYwSqz8hoMk52lSQsmkYoXWAz0z7xk5qx9U9djLodpr0vOeaGWxNxpcky/ZO0Os/IaEiL6JKTbank0ksFzHH6yeFlqxxDW1RqtzNnKmQ6NU8CNoh2Ll54FY+caGiH6TEpakdavtmY16CEs9ou6Ndh6zCnozJ+c5T6z8hoWIfpPCiiLmcpbtlUsjumTNTrPHUlQD+T6XxvXMuvw8ECvf+BDRb2JCqVRVx+v14C+1oIoeD2ny4G886jWFkjLhwGc9WNnKJ+vyGxci+k3MjUSi3l3IS6mpfvUYdJjRgq0F9Rws1eMziwkCbDmesmZw708AGC4wl09oDIjoNzGRKt37BEIGLVYjNJKXxUPT4HLEjyu4t3m4UmQun7j2GwMi+k1MOJ1WksgQCLWknoWbtBpcxHPaCWjSqnG5TKx8U0BEv4mZ4ThN1+o3kqVGaF7IFE5lFIvYJ1Z+40BEv4nhIGG+ymA+NeRham7MPqgz+/VVwzkAI8TKNwVE9E1OsRF4mE8inErBYrGQB14ByH1ZpdRBnd73TK/2yxm0xgQBSZXV6zaxIAYBnCVWvmkgot/EBAUBEfmHXMoDz2gCWIv+EO9F+eh9z+r9mRjtd6A3IwAu1rsTBM0gBXeanBmOK/khqvXDttoKafV++OuJWevZ5yPftUaTScwLgpLfnrFa0UJRcMoWtYem63aPmuVzgZyIZ5imgQIBv8TKbzyI6Dc5hWqC1+KBasaHp1b3rZw26iV+mfOud/587+duiwkC5pJJjM7N4QrHYUQUMR6NggPgdNgBAD5Y4Lfb4bPZ0EpR2OP14oDPhz7GGCvkjdELbTkDYIoIvqkgot/kLKZSeUvsmlGQtWA9gTOq5anHwCDT3nrtFlueFxMEXI3HcXR+HmeWIxhj42sbkEVnEgBYVtl8ZH4e/QyDh1pbccDnwx6vt6JS0ZWSyMm9bzZOZ4L3SI59U0FEv8kJahi9rwdaiJWWgmekvpSDkQZxFosF0VRKEfu3FhYKWpPFYEURl1gWl1gWh2dm8GRHBz7V24tBl0uXfqtJSVJBl7cZCAIYtlpJ8J4JIaLf5GTW6tfSQiqHWrvK9cZIfakHFosFk4kE3pidxQ+WgpjMsezdbje2DPSjq6MNXZ3t8HjccLtcYONxzC8sIhJexuz8AiZuTYFVWf1BQcDfz8zgSiyG39qwAU+1t5fdr2o+G8ZigaPio41FEMB3AIyZ3JPRrBjzSU+oGWGex7IooqPeHSHoilECA9+JRPDq5CROBINr3nO73fjkCx/Fo4ceQCDgz3pPUFmc0eUort2YwLnzF3Du3Qu4Pn5Tee9cNIrxDz7A5VgMn+nrQ8BmK6lf5d4bIZ02bdrd4XWi9YmV39gQ0W8Clr6yhNYvteZ9jwMQNombst7CVsn5azV9YYTAwBPBIF69dQvnolEAQBtNK9Xa2lwufOyFj+IjTz4Gp3NtSBytWgcfCPhxT8CPO/fsxqEH78fpn53Fj0+cwqI8kAgKAl6bngaXTuPzmzbVzItlhkC+cwBOFpnHJ4Lf+BDRb3KCctQ0qnzYVysUWghNvS3ZSs6vRRCeXgF6WnIiGMTLE+MYY+Noo2k85HZjPJ1GMBqF2+3Gi7/+CXzkqceyxH09aIrC9q1bMDiwGbfv3onvHT2Gd86dA+T5/qNzcxhyu/Gxri7NrycXMwj+FICTZB7f9BDRJyAkB/PVc818vQU7H/X2HGQwQh+qYYrj8NqtWxhj4zjo9WK/0wkuncbJcBgA8NjDD+CJRw6VJfhqaIrCPXftQVvADzttwc/OvgPIA9pXpybRY7fjYEDfcjhMg89/BwEcJ/P4TQHJyEfAjUSi3l0wJI0utkbhzelpjCYSeNzrxbMtLRiw2zHC8wgKAnYObcNTjz2c16VfLlsGNuOTLz2P++69W9k2xsbx2swMpjjtZ+DD6WyLuJGt/RHZtV8IYuWbByL6BMTIOtyyKCcNa71Stuaet179OLe8jBMchydbWvARnw9+isJIIoGReBxutxvPPP04tgxs1ux827duWSP8J4JBfHt6WtMy0klJAoPVe+psYAv5MoCTReIeiOCbCyL6BEzyPGKCoJswaNlusbbyvafHNZXjAdDLW7DedeWet15ei7lkEg9SFB70eOCwWhEWRZzhOLCiiAMf2of7D3xI83NmhP+uvbcr2w7PzuIHCwsVtZdvAMWl0+DQ+J6g6wCOWa1KQCXB/BDRJyCcTCIhipoW3VHvp2W75Qa0mdVF3yjXdY/Xi0c7VheEXuU4jHMc3G43HvnwA5q49fOxfesW/PanP4mtg4OAHNj37ZnpvEsF16OUAZQDgLuK/taDIIC31pnHJ1a++SCiTwAHCcuiWJLw6lWcRw8Rq6VLuxErr9Wqz7fkJXp8Op1l5e/esV3X8w4ObMYTjz6ovM7M7y/wfNVtc+k0qm+lfrBy4B6Zx28+iOg3CcV+wGE+aZq1+mpqaQ3X6lxaCnUt+rykypp3I5nEOMfBw9iw/8B9uln5GWiKwv333Yvbd+9Stp0OhXBKXjVQKRn3foJPKtsaKYiPBXBSzq1fCCL45oWIPiFrrb5RaURLWg8axa2fIaSKmr+YSIAVRWwbGsLde/S18jN0tLXi0UP3w8OsZuY7GwppGtSHBhP94UwCHkJTQkSfAKjW6huVapIGNTqNeg1qN3pYFHFNtvp3bL8NXo+nZv144P79uGPPHuX1+TiLuWSy4vsqSRI4UQSn+k42iuhnIvULJeABsfJNDxF9AgBgRoN5Ti2pJGAwH41mGeej1GvQYnCg5QBjiWURkweTVzkOY+k0PIwNt+/eqdk5SsHr8eCB+w/A7V4JtRtj4xiORKr6buSW1W0E0b8O4Igq9XE+iOCbHyL6BADAHMchaiBrX6+AQTNT7F5osTqiXEIch7jTCT6dxi15+qizuwd9Pd2anaNU7j/wIewYGlJenwyFEM0zpbXefbJYLLBYLIiLYpa13KNxf7XmOoAjVmvREsZE8JsDIvoEAEA4nYbUwAlG9KBWbvVanKdegyNXIoGEJCmu/e6uTgT8vpr3w+lksG/vqofhRiiE9/Nk6dOycJFRIEvzCGqI6BMAADMclzVHSajdA74RhWQ9oskkKFnox3kes/LAZqB/k6ZR+xRFQxBFUBSd9bf6/wwD/ZvR3tYGyAL4zuJiReeUJAnRBsliSZbmEXIhot9EFPtxz/I85g3k3ic0NpwkQZTn0GdTKcUV3tXZsc6RhaGotali+SQPh90BPrkSk5L5O/N/pogPRdEY2jaIHtXUwjscp0kAq9vAkfDH11maR2g+iOgTAAA8bUHYhKJv1Mj3TL+q7Z8Rr89isSDB80oQX0x2K3sYGzpLFP2M5b7e32rBhzwIyOCwO7LadDqd2Lplk/L6fCSC6yUWm8q9z7EGKFL1rwCG1xmQECu/+SCldQkAACmVRrBBRL+ckrdGdZ1n+mW0ksRalxPm02lknOiMuwUtLd51j6EoWrHWXW4vKJqG0+WFg1mdFnAwTsRjyxAEEem0AJ5LIB6LKkKfEf+MpS+KAmiKQmdHu9JGUBAwyrLY19Kybp9y70nUmm0vGS16/3RmaR4J3CPkQESfAMi5yRdqnKCnUoExqpBrLZj1QIv+q9tISBLC8tw+42TAMK6ix9odDFr8rfC3doCiKPjbukDTlGLdi6Kwxs0vigJ4jgOfiCMcWkR4aQGIrb6npq+3B26KUqYbKi0rzamC4hiLBY6ie9eW0wCOk6V5hAIQ0ScohKrIUlaJ4EmSZAqhzGCW69CChOq7xFmtgCySNir/dARF0Qi0d6KtaxP8gQAcjtJllKJouNweuNweBNo7wfM8gvPTCC8tILQ4nyX8drsd3hYGbGhlIBKpcKDLG3SlCxF8wnoQ0ScozHEcYoIAT5Ha2oWoVPCaRSjLGdyYaSAUBJBZGEdTKy5xiqKzhNjrC6CrdxPaOnvXFft8wXy5OBwO9G4cQFfvRizOTWP61g3EYytFf9oCfghWRo5rB2YEAQs8j44SBhmZzyUmCFhSRe8zBnHvZ7LtEcEnFIOIPkHhSjyOhCgWFH0ziVGtKee+6XWP6/H5eVQWscvphM1uy3q/vasXPX39CLR3an5uiqLR3tULT4sfSwuzmJu+BW+LFzbbanDbbJJHsox7kgnoS6pFP52uu+hflrPtFUu+QyCARO83H8VG+uMch19EowUjwvUIGjNiW0Y4jx7UUvCd8sAxZrVm5X+gVQFw7V29GBzao4vgZ6AoGm5PCzYObMNtu/ehvXdwjTeBK9FVL0mScg/VaXiddXb1XwZwbJ1seyBWPkGGiD5BgRVFvLu83BBJaXLFt559buSBgN540mkw8v2JJxJIcDxEUUB7Vy/6t+4sa+6+Wnw+P/x+P6yqz4uBBS1lrrNPiCI4g1jU12XBL5ZtD0TwCSqI6BOyOBkOYSwer3c31sVI0wzl9qXQIMEsg4fMdaRZFg6rVXF9x2JxcBwHry+Avv5tcLlrV2kvQyKRwHKUVV4z1vIfgUlJyvIOOAC4Neth6UzJyXeI4BPKgYg+IYsxNo6TS+QhoSeFBgmFtjfqYMDqdsNpscAvW/McuwwulUb/4A74fP669CkcDiOhyrnP0HTWlEMpcOk0IqhvWd0pAD8AcHGd/YjgE3Ihok9Yw1uLixWlJ21UcTI69fJqVFNvXk3Gmo5xKXCCBS2BVk36Vwmjo6Ng2VVL32m1wlbGdVosFnDpNCR+dalfrUU/KFv4RPAJlUBEvwlZ72EwmkjgTCRSdrtGcrkXggxMSqeazzMgZ89Tu/chi249yT1/m81W1hJVSXbtq+vz1VL0SymgAyL4hCIQ0SesISgIOBMOI2aQYCUthbqWA5NmH2B4bCvL87pV7vMLIyOYnJyqS3/mZmdxNUf0b3M6y26HE8WsFQm1Ev0ggKMlFNAhgk8oBhF9Ql7eWljAVYME9DWCByEfteq3EQcXFpXQ9zscSiW6K6OjOH/+fF36dPLUSZwfGVFet9E09paQdz+XRE7gXC1EP1hixTwi+IT1IKJPyMuUIOCtpSXEBAEWi8WQwqIXel5rqW2X04f1Bhf1+Ow8NK24+LttNnQzK8F8LMvi1KlT4Hl+nRa0Jc7GcOzY8az5/Dt9Pmx3Fa8FkLctUVRy96MGoj9FLHyChhDRb1JKeUAcXwpiTpWbvFmEX08LvR7VAevtKfFTFPbSq5n4jh87VnNr/xfvnMO//ev/ytq23eWqKOV0VCX4bopC+RMEpTNF5vAJGkNEn1AQ9fI9dTYyrTGCZU3Qnlb36ur1focDbbLAXhsbw9GjR2vWD57ncezYMczMzivb3BSFAz5fRe3N1MhLkVmWRwSfoCVE9AlFeWtxEfMcV8KelWMEy5qgLTFBwL8sLeFULIawKK64+FXZ935w9CiOHz9ek76cP38ex370w6xtv9zRgZ2eypID5abt1cO9f52swyfoBBH9JqaUB8ZIPI5/WVoiFrNBMPrnoI7/+OncHP5+aQmHl5fBp9PY7fUq+10bG8PXXn4ZFy5c0LU/o6Oj+NrXXsbl0feVbYNuF57v6kLAZit6bD5igoCYyr3vt1igdSLh6wCOWK1E8Am6QESfUBRWFPHGzAzeqWDdvl40chrbavuY67kw2jWr+7fVv5J171w0ijeWl9EuCNinEv63T5/G17/+dczNzurSl4mJCbz88st4880fZW1/sbML+yqI2s8QzElcpaWlnxF8klqXoBdE9Anrcoll8T9nZtbN0lcrASo3ja2R0LqPRrjmfMWPPDSNAz4f+uR5/Essi1OLi9hhsylz+wBw9OhRfPu11zSP5g8tzuOVV17B66+/nrX9kbY2PNPRUVGbmetMqIJbtSyrexnAGzRNBJ+gK0T0m5xSHyD/PD+Pb01NFU3YYwQBKodqBylaDXKMZq2XS6HP/WAggEMqgb0I4DzPY8jpVNbtsyyL//FXf4mjR49o1p/Q4jy+9hf/Dd/+9reztg+6XfhEVxc6mcplei6ZxGx61b2vVVndywCO0DQpj0vQHSL6hJI5PDODfzNRMZ5qBylaDXIqbafSwUItBxnPdnZig3t1LfwllsUsy8Kv6sPM7Dxe+forGB4erupccTaG48eP43d/73N49dVXs9bkD7pd+MNNm/FIW1vF91uSJIQFAWFV3n0UqbDHymK+HueI4BNqCBF9QskPk6Ag4K8nJ3EpFtO9T5XS6FZzOVQjXrViX0sLPtvTm+XSH0un1wjcO+fO4Ytf+AKOHz8OUSw9/bMoCuB5HqdOncIf/tF/wn/43z6D733/+2sE/3MbNuIBf/WV/UKpVFYK3mJBfCMZMS/wPgvgXwEcpigi+ISaUX5mCkJTc4ll8crNm/hCfz8Gy8hmZrFYqhKbUo+v9RRDtdfVDPxKRwc4UcQ3b91CsIi4vX36NGY//3n8zmc/i9/85EsItHfm3U8UBVAUDZ7nMTo6ijfeeAPf+c7hvDn9M4L/TGf+tsolLAhZ2fgKDSNYABcABAQh7z5BACcBDFNUVnu5ELEnaA0RfQIgP1xav1RaydMTwSAS6TS+2N+PXSWuda6XKz1XlLUefJSSArfYPmYfNFgsFnhoGp/ZsAEA1hX+a2Nj+PKXv4yRkRF84Y8+h6Hb7wJkoRcEEeFQCKNXr2JUzuF/6uRJXBsbW9OOm6LwYFsbXursxMFAQLPrCao8CCgSuT8qxzA8nMf9fx3AW5mkO0TwCTWGiD6hIk6HQviqIOAPtmypavlTpVRq+dd68LHe/mYWfORc3ye6u+Gz2XB4ZgbnotGCx7Asi9dffx0T4+N46MFfQoJPIRwOIxIOY3x8HOPj41gMBgseP+h24cXOLjzT0YEOh7ar6KPW7BnRfKLPAjgrDzx25Ij6ZQDHyJI8Qh2xLH1lydxPHUJZlGrtZxh0u/C8P4Bf7u1FXxVR0ZVidkvZjIzF43htehpHQ4uIccWXgZZDH03jQCCAF3p7dRuI/sX4OP7q1i3l9e8B2Jmzz2UA36YodEsSXkin0SdvPw3gOE0X9XSACD5BZ4ilT8iiHDc/5Pz8L7Nx/DQex7MdHXg8EIDXbte1j2qI4JeHEQZJgy4X/ri/H3u8XhxdWMDI8nLRee1itNE0hpxO7PX7cai1teIiOuthsVgQTaWyUvC6KQpMnn5fkZNa9QPok+fvhwGcpCiwRPAJdYaIPkETTodCGFlextnWVjzb1aXpPGqtMIIg6o1Rrs9D0/hYVxce9PtxKhzGO8vLuBiNYpbnC1rCbooC43Cg22KB327HkMuFu1pacI/Xi06G0b0glIemwajc+36LBbkle4IAxq1WuC0W7BBFTMkBe6dRfP4eRPAJNYKIPmEN5Vr7GVhRxPcWFnAmFMKzPT14sr0dmxkGXjnHuVEEpxBG7Z+ZByMdDgc+1tWFJ9raEBEEzCaTmOI4REURsUQCgrxCxC9J6LLbEbDZ0G23o8VqzfIo1apoU48qRqBfENCWs+8cgFmLBX6LBTNk/p5gQMicPqEglQi/mg1uF+5we3CX2429LS3Y4nRWVOSEYH4aZWAzFo/j90dHMcvzeJ5hcJcoQkgklPd/JP9TMg4S655gMIjoE4pSrfBn6KNp7PD5sN3lwgGfD9tcLjgpSpf512I0irhUSi2vz+z3Mh8xQcDxmzcxm0phwG6HdXISADAFYBzAyRIy62Uggk+oB0T0CeuilfBncFMU+hkGO1wu9Pv92Gi1YtDlQqfNVpeBQLPRjGKtJVeXlnArGgWfTmMiGMTlRAKjJbjxMxCxJ9QTIvqEktBa+HPpo2n4HQ70MAw2MwwG5KmALrsdfppGC0XBKbtMqxkUmE3wzHQ9jXItw9PTeDsSwQjPYzyRKNmyBxF8ggEgok8oGb2FPx9tNA0GgN/hgN9uxwaHAxu9Xmy32dDjcMBP07BbLGAslpKWCmYisRtBXBqZRhHwUokJAuaSSZyPRnFiZgZvx+NlLzMkgk8wAkT0CWVRD+HPh5ui4LdYwDjs8FspBOx2+K1W+Ox2BFwudFkscFEUfBSFbocDjNUKu8WS11tAO51ZwVgEQkbkr8bjuByL4Wo8jhtcArMcT8Se0NAQ0SdUhFHEvxhuigJjsYABlMFBOwC/2w0PRYGxWtHjcMBhtcJP0wjYbGCsVjBWK1ooCrTVClqSappsiFAfYoKAiCDgCsviaiqFkaWlikVeDRF8gtEgok+oikYQ/1LIHSAwsMBvtaLbaoXFbgdD0/DRNAI0DZ/NpngRGIqCX07aUsiTkKGYy1tdEthMbvEM9Xb3q+9vNJVCQhRxk+cxxXFYSCbxQSKBi9EoxjmuKpHPQMSeYFSI6BM0xSyDgFLI1Ij3p9OAk4HfSq0MDmw2eK1WtNts8KbT8Did8FIUXBQFp9W6ZqAAoOLBQjEKHZdvu96iXCiWQo8Yi5ggICGKSEr5a/RLAAAB8klEQVQSZpNJcKKImWQSkVQKM8kkZlIpTLAsZnkenCRpIvIZiNgTjA4RfUJNaKbBQCE8jA0OYeXnpvYoMFYrGJqG02qFnaLQSlFgkkk4XC4lA5zDaoXr/2/vjnYShsEwDH9QhqIhev83aDxyRsLW0rUe2JI5YxQyAlvf54hkhXDE+zNYZ8zX2YS0Fexz2ugo/xyRbXqPNRgkdt5rW1XHyJ4S3TwYnDJMDI9ned3w/Qztev+MP8Sofdep9l5tCHp1Tvuukw1BL9bq3Xu13qsOQW/OqQ1BtbWqRw77bwg+poDo42YwGPwt7/SWf4pQGh4k6XmZjkna9P6HsE7PeYhRxhhVi4Xu0uDQ30t+G4JW6Xn3xhzX5LMRq3RmwsWop8FgIUlNuk593wusSzG3IWjXNFqt1/LOfbtFbb6JjQ1Bh7T+o3fNu0uv1zinOoW8lUb/ln4OQo+pIfqYFAaD63ocxH5RLRUPPzeluXaML43YY6qIPmaHwQCXQOgxB+x3itk558OZQQFDRB5zRPSBET7gGRqmjcCjFEQfGMElo1HyQEGMgXERfeDGET4AY1n+Yw0AAJgBog8AQCGIPgAAhSD6AAAUgugDAFAIog8AQCGIPgAAhSD6AAAUgugDAFAIog8AQCGIPgAAhSD6AAAUgugDAFCITxIWxy7aUxvkAAAAAElFTkSuQmCC;" vertex="1" parent="7">
                    <mxGeometry x="60" y="70" width="223.07" height="220" as="geometry"/>
                </mxCell>
                <mxCell id="10" value="Number...&amp;nbsp; &amp;nbsp; &amp;nbsp; &amp;nbsp; &amp;nbsp; &amp;nbsp; &amp;nbsp; &amp;nbsp; &amp;nbsp;&amp;nbsp;" style="whiteSpace=wrap;html=1;" vertex="1" parent="7">
                    <mxGeometry x="50" y="330" width="120" height="30" as="geometry"/>
                </mxCell>
                <mxCell id="11" value="Check" style="rounded=1;whiteSpace=wrap;html=1;" vertex="1" parent="7">
                    <mxGeometry x="190" y="330" width="80" height="30" as="geometry"/>
                </mxCell>
                <mxCell id="12" value="You are correct/incorrect!" style="text;html=1;align=center;verticalAlign=middle;resizable=0;points=[];autosize=1;strokeColor=none;fillColor=none;" vertex="1" parent="7">
                    <mxGeometry x="30" y="370" width="160" height="30" as="geometry"/>
                </mxCell>
                <mxCell id="13" value="(If incorrect)" style="text;html=1;align=center;verticalAlign=middle;resizable=0;points=[];autosize=1;strokeColor=none;fillColor=none;fontSize=10;" vertex="1" parent="7">
                    <mxGeometry x="215" y="400" width="80" height="30" as="geometry"/>
                </mxCell>
                <mxCell id="14" value="Guess again!" style="text;html=1;align=center;verticalAlign=middle;resizable=0;points=[];autosize=1;strokeColor=none;fillColor=none;" vertex="1" parent="7">
                    <mxGeometry x="195" y="370" width="100" height="30" as="geometry"/>
                </mxCell>
                <mxCell id="15" value="&lt;font style=&quot;font-size: 22px;&quot;&gt;Dice Guessing Game&lt;/font&gt;" style="text;html=1;align=center;verticalAlign=middle;resizable=0;points=[];autosize=1;strokeColor=none;fillColor=none;fontSize=10;" vertex="1" parent="7">
                    <mxGeometry x="160" y="30" width="230" height="40" as="geometry"/>
                </mxCell>
            </root>
        </mxGraphModel>
    </diagram>
</mxfile>